<svg width="26" height="26" viewBox="0 0 26 26" fill="none" xmlns="http://www.w3.org/2000/svg">
<path d="M16.8833 9.7535L12.68 13.9568L8.47667 9.7535C8.37637 9.6532 8.2573 9.57364 8.12626 9.51936C7.99521 9.46508 7.85476 9.43714 7.71292 9.43714C7.57108 9.43714 7.43062 9.46508 7.29958 9.51936C7.16854 9.57364 7.04947 9.6532 6.94917 9.7535C6.84887 9.85379 6.76931 9.97286 6.71503 10.1039C6.66075 10.235 6.63281 10.3754 6.63281 10.5172C6.63281 10.6591 6.66075 10.7995 6.71503 10.9306C6.76931 11.0616 6.84887 11.1807 6.94917 11.281L11.9217 16.2535C12.0219 16.3539 12.1409 16.4336 12.272 16.488C12.403 16.5423 12.5435 16.5703 12.6854 16.5703C12.8273 16.5703 12.9678 16.5423 13.0988 16.488C13.2299 16.4336 13.3489 16.3539 13.4492 16.2535L18.4217 11.281C18.8442 10.8585 18.8442 10.176 18.4217 9.7535C17.9992 9.34183 17.3058 9.331 16.8833 9.7535Z" fill="#A0A2A2"/>
</svg>
