<svg width="36" height="25" viewBox="0 0 36 25" fill="none" xmlns="http://www.w3.org/2000/svg">
<path d="M0.132812 0.132812V11.0673V23.9586H35.8702V11.0831V0.132812H0.132812Z" fill="white"/>
<path d="M0.132812 0.132812V0.957561V1.93202H35.8702V0.960187V0.132812H0.132812Z" fill="#ED210C"/>
<path d="M0.132812 3.78906V4.61381V5.58827H35.8702V4.61644V3.78906H0.132812Z" fill="#ED210C"/>
<path d="M0.132812 7.47656V8.30131V9.27578H35.8702V8.30394V7.47656H0.132812Z" fill="#ED210C"/>
<path d="M0.132812 11.1328V11.9576V12.932H35.8702V11.9602V11.1328H0.132812Z" fill="#ED210C"/>
<path d="M0.132812 14.7891V15.6138V16.5883H35.8702V15.6164V14.7891H0.132812Z" fill="#ED210C"/>
<path d="M0.132812 18.4453V19.2701V20.2445H35.8702V19.2727V18.4453H0.132812Z" fill="#ED210C"/>
<path d="M0.132812 22.1562V22.981V23.9555H35.8702V22.9836V22.1562H0.132812Z" fill="#ED210C"/>
<path d="M18.2247 0.132812H0.132812V11.0095H18.2247V0.132812Z" fill="#133A91"/>
<path d="M18.2247 2.05469H0.132812V12.9314H18.2247V2.05469Z" fill="#133A91"/>
<path d="M1.64358 0.703125L1.79592 1.17591H2.29497L1.89311 1.47009L2.04545 1.94287L1.64358 1.65132L1.24171 1.94287L1.39406 1.47009L0.992188 1.17591H1.48861L1.64358 0.703125Z" fill="white"/>
<path d="M4.66702 0.703125L4.82199 1.17591H5.31841L4.91654 1.47009L5.07151 1.94287L4.66702 1.65132L4.26515 1.94287L4.42012 1.47009L4.01562 1.17591H4.51468L4.66702 0.703125Z" fill="white"/>
<path d="M7.69827 0.703125L7.85061 1.17591H8.34966L7.94779 1.47009L8.10014 1.94287L7.69827 1.65132L7.2964 1.94287L7.44874 1.47009L7.04688 1.17591H7.5433L7.69827 0.703125Z" fill="white"/>
<path d="M10.7217 0.703125L10.8767 1.17591H11.3731L10.9712 1.47009L11.1262 1.94287L10.7217 1.65132L10.3198 1.94287L10.4748 1.47009L10.0703 1.17591H10.5694L10.7217 0.703125Z" fill="white"/>
<path d="M13.753 0.703125L13.9053 1.17591H14.4043L13.9999 1.47009L14.1548 1.94287L13.753 1.65132L13.3511 1.94287L13.5034 1.47009L13.1016 1.17591H13.598L13.753 0.703125Z" fill="white"/>
<path d="M16.7764 0.703125L16.9314 1.17591H17.4278L17.0259 1.47009L17.1783 1.94287L16.7764 1.65132L16.3745 1.94287L16.5295 1.47009L16.125 1.17591H16.6241L16.7764 0.703125Z" fill="white"/>
<path d="M1.64358 3.28516L1.79592 3.75794H2.29497L1.89311 4.04949L2.04545 4.52491L1.64358 4.23073L1.24171 4.52491L1.39406 4.04949L0.992188 3.75794H1.48861L1.64358 3.28516Z" fill="white"/>
<path d="M4.66702 3.28516L4.82199 3.75794H5.31841L4.91654 4.04949L5.07151 4.52491L4.66702 4.23073L4.26515 4.52491L4.42012 4.04949L4.01562 3.75794H4.51468L4.66702 3.28516Z" fill="white"/>
<path d="M7.69827 3.28516L7.85061 3.75794H8.34966L7.94779 4.04949L8.10014 4.52491L7.69827 4.23073L7.2964 4.52491L7.44874 4.04949L7.04688 3.75794H7.5433L7.69827 3.28516Z" fill="white"/>
<path d="M10.7217 3.28516L10.8767 3.75794H11.3731L10.9712 4.04949L11.1262 4.52491L10.7217 4.23073L10.3198 4.52491L10.4748 4.04949L10.0703 3.75794H10.5694L10.7217 3.28516Z" fill="white"/>
<path d="M13.753 3.28516L13.9053 3.75794H14.4043L13.9999 4.04949L14.1548 4.52491L13.753 4.23073L13.3511 4.52491L13.5034 4.04949L13.1016 3.75794H13.598L13.753 3.28516Z" fill="white"/>
<path d="M16.7764 3.28516L16.9314 3.75794H17.4278L17.0259 4.04949L17.1783 4.52491L16.7764 4.23073L16.3745 4.52491L16.5295 4.04949L16.125 3.75794H16.6241L16.7764 3.28516Z" fill="white"/>
<path d="M1.64358 5.85938L1.79592 6.33216H2.29497L1.89311 6.62634L2.04545 7.09912L1.64358 6.80495L1.24171 7.09912L1.39406 6.62634L0.992188 6.33216H1.48861L1.64358 5.85938Z" fill="white"/>
<path d="M4.66702 5.85938L4.82199 6.33216H5.31841L4.91654 6.62634L5.07151 7.09912L4.66702 6.80495L4.26515 7.09912L4.42012 6.62634L4.01562 6.33216H4.51468L4.66702 5.85938Z" fill="white"/>
<path d="M7.69827 5.85938L7.85061 6.33216H8.34966L7.94779 6.62634L8.10014 7.09912L7.69827 6.80495L7.2964 7.09912L7.44874 6.62634L7.04688 6.33216H7.5433L7.69827 5.85938Z" fill="white"/>
<path d="M10.7217 5.85938L10.8767 6.33216H11.3731L10.9712 6.62634L11.1262 7.09912L10.7217 6.80495L10.3198 7.09912L10.4748 6.62634L10.0703 6.33216H10.5694L10.7217 5.85938Z" fill="white"/>
<path d="M13.753 5.85938L13.9053 6.33216H14.4043L13.9999 6.62634L14.1548 7.09912L13.753 6.80495L13.3511 7.09912L13.5034 6.62634L13.1016 6.33216H13.598L13.753 5.85938Z" fill="white"/>
<path d="M16.7764 5.85938L16.9314 6.33216H17.4278L17.0259 6.62634L17.1783 7.09912L16.7764 6.80495L16.3745 7.09912L16.5295 6.62634L16.125 6.33216H16.6241L16.7764 5.85938Z" fill="white"/>
<path d="M1.64358 8.4375L1.79592 8.91291H2.29497L1.89311 9.20446L2.04545 9.67725L1.64358 9.3857L1.24171 9.67725L1.39406 9.20446L0.992188 8.91291H1.48861L1.64358 8.4375Z" fill="white"/>
<path d="M4.66702 8.4375L4.82199 8.91291H5.31841L4.91654 9.20446L5.07151 9.67725L4.66702 9.3857L4.26515 9.67725L4.42012 9.20446L4.01562 8.91291H4.51468L4.66702 8.4375Z" fill="white"/>
<path d="M7.69827 8.4375L7.85061 8.91291H8.34966L7.94779 9.20446L8.10014 9.67725L7.69827 9.3857L7.2964 9.67725L7.44874 9.20446L7.04688 8.91291H7.5433L7.69827 8.4375Z" fill="white"/>
<path d="M10.7217 8.4375L10.8767 8.91291H11.3731L10.9712 9.20446L11.1262 9.67725L10.7217 9.3857L10.3198 9.67725L10.4748 9.20446L10.0703 8.91291H10.5694L10.7217 8.4375Z" fill="white"/>
<path d="M13.753 8.4375L13.9053 8.91291H14.4043L13.9999 9.20446L14.1548 9.67725L13.753 9.3857L13.3511 9.67725L13.5034 9.20446L13.1016 8.91291H13.598L13.753 8.4375Z" fill="white"/>
<path d="M16.7764 8.4375L16.9314 8.91291H17.4278L17.0259 9.20446L17.1783 9.67725L16.7764 9.3857L16.3745 9.67725L16.5295 9.20446L16.125 8.91291H16.6241L16.7764 8.4375Z" fill="white"/>
<path d="M1.64358 11.0156L1.79592 11.4884H2.29497L1.89311 11.78L2.04545 12.2554L1.64358 11.9612L1.24171 12.2554L1.39406 11.78L0.992188 11.4884H1.48861L1.64358 11.0156Z" fill="white"/>
<path d="M4.66702 11.0156L4.82199 11.4884H5.31841L4.91654 11.78L5.07151 12.2554L4.66702 11.9612L4.26515 12.2554L4.42012 11.78L4.01562 11.4884H4.51468L4.66702 11.0156Z" fill="white"/>
<path d="M7.69827 11.0156L7.85061 11.4884H8.34966L7.94779 11.78L8.10014 12.2554L7.69827 11.9612L7.2964 12.2554L7.44874 11.78L7.04688 11.4884H7.5433L7.69827 11.0156Z" fill="white"/>
<path d="M10.7217 11.0156L10.8767 11.4884H11.3731L10.9712 11.78L11.1262 12.2554L10.7217 11.9612L10.3198 12.2554L10.4748 11.78L10.0703 11.4884H10.5694L10.7217 11.0156Z" fill="white"/>
<path d="M13.753 11.0156L13.9053 11.4884H14.4043L13.9999 11.78L14.1548 12.2554L13.753 11.9612L13.3511 12.2554L13.5034 11.78L13.1016 11.4884H13.598L13.753 11.0156Z" fill="white"/>
<path d="M16.7764 11.0156L16.9314 11.4884H17.4278L17.0259 11.78L17.1783 12.2554L16.7764 11.9612L16.3745 12.2554L16.5295 11.78L16.125 11.4884H16.6241L16.7764 11.0156Z" fill="white"/>
<path d="M3.14358 2.02344L3.29592 2.49885H3.79235L3.39048 2.7904L3.54545 3.26319L3.14358 2.97164L2.73909 3.26319L2.89406 2.7904L2.49219 2.49885H2.98861L3.14358 2.02344Z" fill="white"/>
<path d="M6.16702 2.02344L6.31936 2.49885H6.81841L6.41654 2.7904L6.56889 3.26319L6.16702 2.97164L5.76515 3.26319L5.91749 2.7904L5.51562 2.49885H6.01205L6.16702 2.02344Z" fill="white"/>
<path d="M9.19827 2.02344L9.35324 2.49885H9.84966L9.44779 2.7904L9.60276 3.26319L9.19827 2.97164L8.7964 3.26319L8.95137 2.7904L8.54688 2.49885H9.04593L9.19827 2.02344Z" fill="white"/>
<path d="M12.2217 2.02344L12.374 2.49885H12.8731L12.4712 2.7904L12.6236 3.26319L12.2217 2.97164L11.8198 3.26319L11.9722 2.7904L11.5703 2.49885H12.0667L12.2217 2.02344Z" fill="white"/>
<path d="M15.253 2.02344L15.4079 2.49885H15.9043L15.5025 2.7904L15.6575 3.26319L15.253 2.97164L14.8511 3.26319L15.0061 2.7904L14.6016 2.49885H15.1006L15.253 2.02344Z" fill="white"/>
<path d="M3.14358 4.57031L3.29592 5.0431H3.79235L3.39048 5.33728L3.54545 5.81006L3.14358 5.51851L2.73909 5.81006L2.89406 5.33728L2.49219 5.0431H2.98861L3.14358 4.57031Z" fill="white"/>
<path d="M6.16702 4.57031L6.31936 5.0431H6.81841L6.41654 5.33728L6.56889 5.81006L6.16702 5.51851L5.76515 5.81006L5.91749 5.33728L5.51562 5.0431H6.01205L6.16702 4.57031Z" fill="white"/>
<path d="M9.19827 4.57031L9.35324 5.0431H9.84966L9.44779 5.33728L9.60276 5.81006L9.19827 5.51851L8.7964 5.81006L8.95137 5.33728L8.54688 5.0431H9.04593L9.19827 4.57031Z" fill="white"/>
<path d="M12.2217 4.57031L12.374 5.0431H12.8731L12.4712 5.33728L12.6236 5.81006L12.2217 5.51851L11.8198 5.81006L11.9722 5.33728L11.5703 5.0431H12.0667L12.2217 4.57031Z" fill="white"/>
<path d="M15.253 4.57031L15.4079 5.0431H15.9043L15.5025 5.33728L15.6575 5.81006L15.253 5.51851L14.8511 5.81006L15.0061 5.33728L14.6016 5.0431H15.1006L15.253 4.57031Z" fill="white"/>
<path d="M3.14358 7.11719L3.29592 7.58997H3.79235L3.39048 7.88415L3.54545 8.35694L3.14358 8.06538L2.73909 8.35694L2.89406 7.88415L2.49219 7.58997H2.98861L3.14358 7.11719Z" fill="white"/>
<path d="M6.16702 7.11719L6.31936 7.58997H6.81841L6.41654 7.88415L6.56889 8.35694L6.16702 8.06538L5.76515 8.35694L5.91749 7.88415L5.51562 7.58997H6.01205L6.16702 7.11719Z" fill="white"/>
<path d="M9.19827 7.11719L9.35324 7.58997H9.84966L9.44779 7.88415L9.60276 8.35694L9.19827 8.06538L8.7964 8.35694L8.95137 7.88415L8.54688 7.58997H9.04593L9.19827 7.11719Z" fill="white"/>
<path d="M12.2217 7.11719L12.374 7.58997H12.8731L12.4712 7.88415L12.6236 8.35694L12.2217 8.06538L11.8198 8.35694L11.9722 7.88415L11.5703 7.58997H12.0667L12.2217 7.11719Z" fill="white"/>
<path d="M15.253 7.11719L15.4079 7.58997H15.9043L15.5025 7.88415L15.6575 8.35694L15.253 8.06538L14.8511 8.35694L15.0061 7.88415L14.6016 7.58997H15.1006L15.253 7.11719Z" fill="white"/>
<path d="M3.14358 9.66406L3.29592 10.1368H3.79235L3.39048 10.431L3.54545 10.9038L3.14358 10.6096L2.73909 10.9038L2.89406 10.431L2.49219 10.1368H2.98861L3.14358 9.66406Z" fill="white"/>
<path d="M6.16702 9.66406L6.31936 10.1368H6.81841L6.41654 10.431L6.56889 10.9038L6.16702 10.6096L5.76515 10.9038L5.91749 10.431L5.51562 10.1368H6.01205L6.16702 9.66406Z" fill="white"/>
<path d="M9.19827 9.66406L9.35324 10.1368H9.84966L9.44779 10.431L9.60276 10.9038L9.19827 10.6096L8.7964 10.9038L8.95137 10.431L8.54688 10.1368H9.04593L9.19827 9.66406Z" fill="white"/>
<path d="M12.2217 9.66406L12.374 10.1368H12.8731L12.4712 10.431L12.6236 10.9038L12.2217 10.6096L11.8198 10.9038L11.9722 10.431L11.5703 10.1368H12.0667L12.2217 9.66406Z" fill="white"/>
<path d="M15.253 9.66406L15.4079 10.1368H15.9043L15.5025 10.431L15.6575 10.9038L15.253 10.6096L14.8511 10.9038L15.0061 10.431L14.6016 10.1368H15.1006L15.253 9.66406Z" fill="white"/>
</svg>
