<svg width="36" height="25" viewBox="0 0 36 25" fill="none" xmlns="http://www.w3.org/2000/svg">
<g clip-path="url(#clip0_1822_91081)">
<path d="M35.8701 0.425781H0.132812V24.2515H35.8701V0.425781Z" fill="white"/>
<path d="M26.1943 6.49459L24.6472 4.23047L23.875 4.73215L25.4247 6.99627L26.1943 6.49459Z" fill="#231815"/>
<path d="M27.9755 9.22634L26.4258 6.96484L25.6562 7.4639L27.2059 9.72801L27.9755 9.22634Z" fill="#231815"/>
<path d="M9.10052 18.0493L7.55084 15.7852L6.78125 16.2868L8.33094 18.551L9.10052 18.0493Z" fill="#231815"/>
<path d="M10.8818 20.7849L9.33209 18.5234L8.5625 19.0225L10.1122 21.2866L10.8818 20.7849Z" fill="#231815"/>
<path d="M26.4856 17.7793L27.9775 15.4784L27.2185 14.9609L25.7266 17.2618L26.4856 17.7793Z" fill="#231815"/>
<path d="M24.6419 20.4733L26.1338 18.1724L25.3747 17.6523L23.8828 19.9532L24.6419 20.4733Z" fill="#231815"/>
<path d="M27.7356 18.6139L29.2275 16.313L28.4685 15.793L26.9766 18.0939L27.7356 18.6139Z" fill="#231815"/>
<path d="M25.8919 21.3066L27.3838 19.0057L26.6247 18.4883L25.1328 20.7892L25.8919 21.3066Z" fill="#231815"/>
<path d="M28.9544 19.446L30.4489 17.1451L29.6898 16.625L28.1953 18.9259L28.9544 19.446Z" fill="#231815"/>
<path d="M27.1185 22.1386L28.613 19.8378L27.8539 19.3203L26.3594 21.6186L27.1185 22.1386Z" fill="#231815"/>
<path d="M28.6943 4.76803L27.1446 2.50391L26.375 3.00558L27.9247 5.26971L28.6943 4.76803Z" fill="#231815"/>
<path d="M30.4677 7.50368L28.918 5.24219L28.1484 5.74124L29.6981 8.00536L30.4677 7.50368Z" fill="#231815"/>
<path d="M28.4578 8.88457L29.2274 8.38289L25.9363 3.33984L25.1641 3.84152L28.4578 8.88457Z" fill="#231815"/>
<path d="M5.52344 7.57302L6.29303 8.07733L9.57889 3.03165L8.81192 2.52734L5.52344 7.57302Z" fill="#231815"/>
<path d="M6.83594 8.4493L7.60553 8.9536L10.8914 3.90793L10.1244 3.40625L6.83594 8.4493Z" fill="#231815"/>
<path d="M8.10938 9.26052L8.87634 9.7622L12.1648 4.71915L11.3952 4.21484L8.10938 9.26052Z" fill="#231815"/>
<path d="M11.3614 20.4835L12.1336 19.9818L8.84253 14.9414L8.07031 15.4431L11.3614 20.4835Z" fill="#231815"/>
<path d="M8.8458 22.171L9.61539 21.6693L6.32428 16.6289L5.55469 17.128L8.8458 22.171Z" fill="#231815"/>
<path d="M21.648 11.2216C19.2447 10.473 18.2571 12.0279 17.913 12.393C17.5689 12.7555 16.6417 14.0478 14.6429 13.5041C12.3472 12.8789 12.3131 10.8801 12.5836 9.51953C12.1713 10.339 11.9375 11.261 11.9375 12.2407C11.9375 12.2617 11.9375 12.2827 11.9375 12.3037C11.9716 15.6211 14.6718 18.3002 17.997 18.3002C20.4634 18.3002 22.5804 16.8241 23.526 14.7097C23.6363 13.1994 23.2213 11.7101 21.6454 11.2189L21.648 11.2216Z" fill="#133A91"/>
<path d="M24.0621 12.2419C24.0621 8.89295 21.3489 6.17969 18 6.17969C15.6308 6.17969 13.5794 7.54026 12.584 9.52071C12.3134 10.8787 12.3476 12.8775 14.6432 13.5052C16.642 14.0516 17.5719 12.7593 17.9133 12.3942C18.2574 12.0317 19.2476 10.4742 21.6483 11.2227C23.2269 11.7139 23.6393 13.2032 23.5289 14.7135C23.7837 14.1435 23.9597 13.5289 24.028 12.8827C24.049 12.6726 24.0621 12.4572 24.0621 12.2419Z" fill="#ED210C"/>
</g>
<defs>
<clipPath id="clip0_1822_91081">
<rect width="36" height="24.0884" fill="white" transform="translate(0 0.292969)"/>
</clipPath>
</defs>
</svg>
