<svg width="17" height="14" viewBox="0 0 17 14" fill="none" xmlns="http://www.w3.org/2000/svg">
<path d="M15.8586 8.43697C15.4746 8.01903 15.0211 7.71888 14.4999 7.5333C13.9787 7.34773 13.338 7.18474 12.5796 7.04274C11.9922 6.92816 11.5694 6.82166 11.3128 6.72322C11.0563 6.62479 10.9288 6.47471 10.9288 6.27461C10.9288 5.85666 11.3596 5.6485 12.223 5.6485C13.0863 5.6485 14.0206 5.89539 14.9969 6.38757L16.0071 3.95411C15.5036 3.6701 14.9227 3.45386 14.2643 3.30701C13.6043 3.16017 12.9346 3.08594 12.252 3.08594C11.6533 3.08594 11.1095 3.1408 10.619 3.24569C10.556 3.26022 10.4931 3.27474 10.4318 3.29088C10.4027 3.29733 10.3737 3.3054 10.3462 3.31347C10.2946 3.32799 10.243 3.34252 10.1929 3.35704C10.1494 3.36995 10.1058 3.38447 10.0638 3.39738C10.0267 3.41029 9.988 3.42159 9.95249 3.4345C9.87181 3.46354 9.79112 3.4942 9.71367 3.52648C9.01655 3.82017 8.49209 4.2236 8.14192 4.73514C7.79013 5.24669 7.61585 5.81632 7.61585 6.44244C7.61585 7.16376 7.80466 7.73501 8.18549 8.15619C8.22583 8.20137 8.26779 8.24656 8.31136 8.28851C8.66315 8.64192 9.06657 8.90172 9.52325 9.06632C10.0348 9.25189 10.6754 9.42456 11.4436 9.58593C12.0406 9.70857 12.4699 9.82315 12.7313 9.92804C12.9927 10.0329 13.1218 10.1895 13.1218 10.3976C13.1218 10.5784 13.0218 10.7139 12.8233 10.8027C12.6248 10.893 12.2924 10.9382 11.8276 10.9382C11.287 10.9382 10.7222 10.8559 10.1348 10.6897C9.54745 10.5235 9.01493 10.304 8.54212 10.0281L7.46094 12.4745C7.9628 12.7875 8.60667 13.036 9.38931 13.2216C10.172 13.4072 10.9756 13.4992 11.8002 13.4992C12.7958 13.4992 13.643 13.3491 14.3402 13.0506C15.0373 12.752 15.5617 12.3486 15.9119 11.8419C16.2621 11.3352 16.438 10.7672 16.438 10.1427C16.438 9.42133 16.2459 8.85331 15.8619 8.43536L15.8586 8.43697Z" fill="#A0A2A2"/>
<path d="M8.23429 8.89609C8.08744 8.77345 7.94705 8.64113 7.81473 8.49428C7.35159 7.97951 7.11761 7.29046 7.11761 6.44649C7.11761 5.72033 7.32416 5.05064 7.73081 4.4568C8.13424 3.86618 8.73777 3.39982 9.52041 3.06901C9.92061 2.90119 10.3676 2.77693 10.8549 2.69786L11.7844 0.501614H8.48441L6.05095 6.32063L3.67558 0.5H0.0625L4.27426 10.4582H7.57429L8.23429 8.89609Z" fill="#A0A2A2"/>
</svg>
