<svg width="36" height="36" viewBox="0 0 36 36" fill="none" xmlns="http://www.w3.org/2000/svg">
<circle cx="18" cy="18" r="18" fill="#80E8B6" fill-opacity="0.2"/>
<path fill-rule="evenodd" clip-rule="evenodd" d="M18 4.81553C10.7184 4.81553 4.81553 10.7184 4.81553 18C4.81553 25.2816 10.7184 31.1845 18 31.1845C25.2816 31.1845 31.1845 25.2816 31.1845 18C31.1845 10.7184 25.2816 4.81553 18 4.81553ZM4 18C4 10.268 10.268 4 18 4C25.732 4 32 10.268 32 18C32 25.732 25.732 32 18 32C10.268 32 4 25.732 4 18Z" fill="#00A580"/>
<path fill-rule="evenodd" clip-rule="evenodd" d="M19.2617 13.8639C19.4123 13.8144 19.578 13.8566 19.6865 13.9722L20.6406 14.9889C20.6528 15.0019 20.664 15.0155 20.6742 15.0296C21.2227 15.594 21.9658 15.9349 22.737 15.9549L25.7953 15.0982C25.951 15.0546 26.1179 15.1072 26.2205 15.2323L25.9052 15.4909C26.2205 15.2323 26.2206 15.2324 26.2208 15.2326L26.2218 15.2338L26.2236 15.236L26.2285 15.2422C26.2324 15.2472 26.2376 15.2537 26.2439 15.2619C26.2564 15.2783 26.2734 15.3011 26.2941 15.3302C26.3355 15.3885 26.3918 15.4721 26.4563 15.5802C26.5853 15.7963 26.7481 16.111 26.892 16.5163C27.1805 17.3289 27.391 18.5016 27.1046 19.9623C27.0894 20.0398 27.0521 20.1111 26.9972 20.1677C26.9358 20.2311 26.8695 20.2574 26.854 20.2636L26.8533 20.2638C26.8282 20.2738 26.807 20.2794 26.7959 20.2821C26.773 20.2877 26.753 20.2906 26.7426 20.292C26.7195 20.2952 26.6952 20.2971 26.6747 20.2986C26.6314 20.3016 26.574 20.304 26.5063 20.3062C26.3696 20.3106 26.1745 20.3143 25.9311 20.3174C25.4435 20.3235 24.7531 20.3274 23.9287 20.3295C22.2795 20.3337 20.0893 20.3309 17.9024 20.3253C15.7155 20.3197 13.5313 20.3113 11.8939 20.3043C11.0752 20.3008 10.3931 20.2976 9.91578 20.2953L9.16587 20.2916C9.16574 20.2916 9.16567 20.2916 9.16777 19.8839L9.16587 20.2916C8.94149 20.2905 8.76 20.1083 8.76 19.8839C8.76 19.8578 8.75935 19.8256 8.75859 19.7879C8.75365 19.542 8.74408 19.0663 8.8802 18.5875C9.04414 18.0108 9.42438 17.4005 10.2483 17.0791C12.2684 16.2894 14.5221 15.4855 16.269 14.8796C17.1428 14.5766 17.8907 14.3227 18.4202 14.1446C18.685 14.0556 18.8952 13.9855 19.0393 13.9376C19.1113 13.9136 19.1668 13.8953 19.2044 13.8828L19.2617 13.8639C19.2618 13.8639 19.2617 13.8639 19.3891 14.2513L19.2617 13.8639ZM19.2701 14.7203C19.128 14.7675 18.9282 14.8342 18.6802 14.9176C18.1526 15.0951 17.4072 15.3481 16.5362 15.6502C14.7933 16.2546 12.5508 17.0546 10.545 17.8388L10.5447 17.8389C10.0094 18.0477 9.77528 18.4214 9.66465 18.8105C9.59791 19.0452 9.57823 19.2753 9.57368 19.4781L9.91967 19.4798C10.3969 19.4821 11.0788 19.4852 11.8974 19.4887C13.5345 19.4957 15.7182 19.5042 17.9045 19.5098C20.091 19.5154 22.2796 19.5182 23.9266 19.514C24.7504 19.5119 25.4375 19.508 25.9208 19.5019C26.0949 19.4997 26.2414 19.4972 26.3578 19.4945C26.5278 18.3428 26.3498 17.4268 26.1234 16.7891C25.9999 16.441 25.8614 16.1748 25.7561 15.9983C25.7486 15.9858 25.7414 15.9738 25.7343 15.9622L22.8999 16.7561C22.8633 16.7664 22.8255 16.7715 22.7875 16.7713C21.7417 16.7651 20.751 16.3029 20.0434 15.5499C20.0303 15.536 20.0184 15.5213 20.0076 15.5061L19.2701 14.7203Z" fill="#00A580"/>
<path fill-rule="evenodd" clip-rule="evenodd" d="M9.16777 19.4761C9.39297 19.4761 9.57553 19.6587 9.57553 19.8839C9.57553 20.7239 10.2571 21.4035 11.0951 21.4035H25.9025C26.1213 21.4035 26.2994 21.2263 26.2994 21.0066V19.8839C26.2994 19.6587 26.482 19.4761 26.7072 19.4761C26.9324 19.4761 27.115 19.6587 27.115 19.8839V21.0066C27.115 21.6785 26.5699 22.219 25.9025 22.219H11.0951C9.8074 22.219 8.76 21.1751 8.76 19.8839C8.76 19.6587 8.94256 19.4761 9.16777 19.4761Z" fill="#00A580"/>
<path fill-rule="evenodd" clip-rule="evenodd" d="M16.323 14.8913C16.5145 14.7728 16.7658 14.832 16.8843 15.0236L19.7359 19.634C19.8544 19.8256 19.7952 20.0769 19.6036 20.1953C19.4121 20.3138 19.1608 20.2546 19.0423 20.063L16.1907 15.4526C16.0722 15.261 16.1315 15.0097 16.323 14.8913Z" fill="#00A580"/>
<path fill-rule="evenodd" clip-rule="evenodd" d="M14.6893 15.5518C14.8809 15.4334 15.1322 15.4927 15.2506 15.6843L17.6917 19.6342C17.8101 19.8257 17.7508 20.077 17.5592 20.1954C17.3677 20.3138 17.1164 20.2545 16.998 20.0629L14.5568 16.113C14.4384 15.9214 14.4977 15.6702 14.6893 15.5518Z" fill="#00A580"/>
<path fill-rule="evenodd" clip-rule="evenodd" d="M13.0123 16.1388C13.204 16.0205 13.4552 16.0801 13.5735 16.2718L15.6476 19.6345C15.7659 19.8261 15.7063 20.0774 15.5147 20.1956C15.323 20.3138 15.0718 20.2543 14.9535 20.0626L12.8794 16.6999C12.7611 16.5082 12.8207 16.257 13.0123 16.1388Z" fill="#00A580"/>
<path fill-rule="evenodd" clip-rule="evenodd" d="M26.8921 13.8388C27.0853 13.9545 27.1483 14.2048 27.0326 14.3981L26.2552 15.6975C26.1395 15.8908 25.8891 15.9537 25.6959 15.8381C25.5026 15.7224 25.4397 15.472 25.5553 15.2788L26.3328 13.9794C26.4484 13.7861 26.6988 13.7232 26.8921 13.8388Z" fill="#00A580"/>
</svg>
