<svg width="24" height="25" viewBox="0 0 24 25" fill="none" xmlns="http://www.w3.org/2000/svg">
<path d="M12 23.5C18.0751 23.5 23 18.5751 23 12.5C23 6.42487 18.0751 1.5 12 1.5C5.92487 1.5 1 6.42487 1 12.5C1 18.5751 5.92487 23.5 12 23.5Z" stroke="#57EE9B" stroke-width="1.5" stroke-linecap="round" stroke-linejoin="round"/>
<path d="M11.9958 8.66406L8.34375 11.3103L9.73918 15.6035H14.2523L15.6478 11.3103L11.9958 8.66406Z" stroke="#57EE9B" stroke-width="1.5" stroke-linecap="round" stroke-linejoin="round"/>
<path d="M9.40625 3.77344L12.0023 5.65287L14.5983 3.77344" stroke="#57EE9B" stroke-width="1.5" stroke-linecap="round" stroke-linejoin="round"/>
<path d="M12 8.6656V6.19531" stroke="#57EE9B" stroke-width="1.5" stroke-linecap="round" stroke-linejoin="round"/>
<path d="M2.90625 12.2702L5.50225 10.3845L4.50911 7.33594" stroke="#57EE9B" stroke-width="1.5" stroke-linecap="round" stroke-linejoin="round"/>
<path d="M8.34457 11.3153L6 10.5547" stroke="#57EE9B" stroke-width="1.5" stroke-linecap="round" stroke-linejoin="round"/>
<path d="M8.97382 21.072L7.98697 18.0234H4.78125" stroke="#57EE9B" stroke-width="1.5" stroke-linecap="round" stroke-linejoin="round"/>
<path d="M9.74888 15.6016L8.29688 17.6004" stroke="#57EE9B" stroke-width="1.5" stroke-linecap="round" stroke-linejoin="round"/>
<path d="M19.2238 18.0234H16.0181L15.0312 21.072" stroke="#57EE9B" stroke-width="1.5" stroke-linecap="round" stroke-linejoin="round"/>
<path d="M14.2578 15.6016L15.7098 17.6004" stroke="#57EE9B" stroke-width="1.5" stroke-linecap="round" stroke-linejoin="round"/>
<path d="M19.4931 7.33594L18.5 10.3845L21.096 12.2702" stroke="#57EE9B" stroke-width="1.5" stroke-linecap="round" stroke-linejoin="round"/>
<path d="M15.6562 11.3153L18.0008 10.5547" stroke="#57EE9B" stroke-width="1.5" stroke-linecap="round" stroke-linejoin="round"/>
</svg>
