<svg width="14" height="18" viewBox="0 0 14 18" fill="none" xmlns="http://www.w3.org/2000/svg">
<path fill-rule="evenodd" clip-rule="evenodd" d="M6.11804 17.53L6.99806 16.9412L7.87807 17.53C7.68155 17.8237 7.35145 18 6.99806 18C6.64466 18 6.31456 17.8237 6.11804 17.53ZM7.62751 15.971C7.24334 16.5746 6.99806 16.9412 6.99806 16.9412C6.99806 16.9412 6.75277 16.5746 6.36861 15.971C4.98183 13.7923 1.78539 8.52587 1.78539 6.27149C1.78539 3.39262 4.11918 1.05882 6.99806 1.05882C9.87693 1.05882 12.2107 3.39262 12.2107 6.27149C12.2107 8.52587 9.01428 13.7923 7.62751 15.971ZM7.87807 17.53C7.87798 17.5301 7.87807 17.53 6.99806 16.9412C6.11804 17.53 6.11813 17.5301 6.11804 17.53L6.11347 17.5231L6.10148 17.5051L6.05619 17.4368C6.01686 17.3773 5.95963 17.2903 5.88707 17.179C5.74198 16.9564 5.53541 16.6363 5.28782 16.2434C4.79321 15.4587 4.1322 14.3796 3.46976 13.2066C2.80924 12.037 2.13723 10.7563 1.62732 9.57181C1.1366 8.43184 0.726562 7.22855 0.726562 6.27149C0.726562 2.80784 3.53441 0 6.99806 0C10.4617 0 13.2695 2.80784 13.2695 6.27149C13.2695 7.22855 12.8595 8.43184 12.3688 9.57181C11.8589 10.7563 11.1869 12.037 10.5264 13.2066C9.86391 14.3796 9.20291 15.4587 8.70829 16.2434C8.4607 16.6363 8.25413 16.9564 8.10904 17.179C8.03648 17.2903 7.97926 17.3773 7.93992 17.4368L7.89463 17.5051L7.88264 17.5231L7.87807 17.53Z" fill="#00A580"/>
<path fill-rule="evenodd" clip-rule="evenodd" d="M10.8516 6.1875C10.8516 8.36212 9.08868 10.125 6.91406 10.125C4.73944 10.125 2.97656 8.36212 2.97656 6.1875C2.97656 4.01288 4.73944 2.25 6.91406 2.25C9.08868 2.25 10.8516 4.01288 10.8516 6.1875ZM6.91406 9.1592C8.55529 9.1592 9.88576 7.82872 9.88576 6.1875C9.88576 4.54628 8.55529 3.2158 6.91406 3.2158C5.27284 3.2158 3.94236 4.54628 3.94236 6.1875C3.94236 7.82872 5.27284 9.1592 6.91406 9.1592Z" fill="#00A580"/>
</svg>
