<svg width="20" height="21" viewBox="0 0 20 21" fill="none" xmlns="http://www.w3.org/2000/svg">
<g clip-path="url(#clip0_1796_4936)">
<path d="M15.325 11.5578C15.3027 9.07802 17.3503 7.88752 17.4429 7.82948C16.2907 6.14378 14.4976 5.91284 13.8579 5.88568C12.3327 5.73131 10.8804 6.78348 10.1073 6.78348C9.33425 6.78348 8.13882 5.90791 6.87423 5.93261C5.20952 5.9573 3.67695 6.89957 2.8199 8.38892C1.0922 11.3861 2.37902 15.8282 4.06102 18.2611C4.88473 19.4503 5.86527 20.7903 7.15456 20.7409C8.39692 20.6915 8.8662 19.9381 10.3654 19.9381C11.8647 19.9381 12.287 20.7409 13.5998 20.7174C14.9347 20.6915 15.7819 19.5022 16.5994 18.3092C17.5429 16.9286 17.9332 15.5924 17.9554 15.522C17.9258 15.5096 15.3521 14.5229 15.325 11.5578Z" fill="white"/>
<path d="M12.5377 4.19094C13.2249 3.2777 13.6888 2.00787 13.561 0.742188C12.5711 0.785787 11.3729 1.46626 10.662 2.37949C10.0257 3.1866 9.4675 4.47951 9.61876 5.71943C10.7228 5.81334 11.8504 5.10283 12.5377 4.19094Z" fill="white"/>
</g>
<defs>
<clipPath id="clip0_1796_4936">
<rect width="20" height="20" fill="white" transform="translate(0 0.742188)"/>
</clipPath>
</defs>
</svg>
