<svg width="36" height="36" viewBox="0 0 36 36" fill="none" xmlns="http://www.w3.org/2000/svg">
<circle cx="18" cy="18" r="18" fill="#80E8B6" fill-opacity="0.2"/>
<mask id="mask0_1796_16870" style="mask-type:alpha" maskUnits="userSpaceOnUse" x="4" y="4" width="28" height="28">
<circle cx="18" cy="18" r="14" fill="#D9D9D9"/>
</mask>
<g mask="url(#mask0_1796_16870)">
<path fill-rule="evenodd" clip-rule="evenodd" d="M7.96495 22.2058C7.96495 21.9778 8.14978 21.793 8.37779 21.793H10.6714C10.8994 21.793 11.0842 21.9778 11.0842 22.2058C11.0842 22.4338 10.8994 22.6187 10.6714 22.6187H8.37779C8.14978 22.6187 7.96495 22.4338 7.96495 22.2058ZM21.9463 22.9395C22.4727 22.7113 23.0953 22.8616 23.4478 23.3209C23.8924 23.8998 23.7272 24.7173 23.1095 25.0936L15.9467 29.4395C15.8503 29.498 15.7341 29.5145 15.6252 29.4852L8.27039 27.5036C8.05023 27.4443 7.91985 27.2177 7.97916 26.9976C8.03848 26.7774 8.26504 26.647 8.48519 26.7063L15.6694 28.642L22.68 24.3884C22.8875 24.2618 22.9315 24.0043 22.7929 23.8238C22.6778 23.6737 22.4642 23.6153 22.2755 23.6968L16.5862 26.1914C16.3774 26.283 16.1339 26.1879 16.0423 25.9791C15.9508 25.7703 16.0458 25.5268 16.2546 25.4352L21.9448 22.9402L21.9463 22.9395Z" fill="#00A580"/>
<path fill-rule="evenodd" clip-rule="evenodd" d="M10.2612 22.1533C10.2902 21.9272 10.4971 21.7674 10.7232 21.7964L18.1043 22.7433C18.6473 22.8128 19.1111 23.2446 19.1111 23.8224C19.1111 24.4662 18.5446 24.9123 17.9447 24.9123H14.3404C14.1124 24.9123 13.9276 24.7274 13.9276 24.4994C13.9276 24.2714 14.1124 24.0866 14.3404 24.0866H17.9447C18.1753 24.0866 18.2854 23.9281 18.2854 23.8224C18.2854 23.7256 18.199 23.5878 17.9996 23.5623L10.6182 22.6153C10.392 22.5863 10.2322 22.3795 10.2612 22.1533Z" fill="#00A580"/>
<path fill-rule="evenodd" clip-rule="evenodd" d="M5.66797 21.0593C5.66797 20.8313 5.85281 20.6465 6.08081 20.6465H8.37439C8.6024 20.6465 8.78723 20.8313 8.78723 21.0593V27.9401C8.78723 28.1681 8.6024 28.3529 8.37439 28.3529H6.08081C5.85281 28.3529 5.66797 28.1681 5.66797 27.9401C5.66797 27.7121 5.85281 27.5272 6.08081 27.5272H7.96155V21.4722H6.08081C5.85281 21.4722 5.66797 21.2873 5.66797 21.0593Z" fill="#00A580"/>
<path fill-rule="evenodd" clip-rule="evenodd" d="M2 19.9128C2 19.6848 2.18484 19.5 2.41284 19.5H5.85321C6.08122 19.5 6.26605 19.6848 6.26605 19.9128V29.0872C6.26605 29.3152 6.08122 29.5 5.85321 29.5H2.41284C2.18484 29.5 2 29.3152 2 29.0872C2 28.8591 2.18484 28.6743 2.41284 28.6743H5.44037V20.3257H2.41284C2.18484 20.3257 2 20.1409 2 19.9128Z" fill="#00A580"/>
</g>
<path fill-rule="evenodd" clip-rule="evenodd" d="M18 4.81553C10.7184 4.81553 4.81553 10.7184 4.81553 18C4.81553 25.2816 10.7184 31.1845 18 31.1845C25.2816 31.1845 31.1845 25.2816 31.1845 18C31.1845 10.7184 25.2816 4.81553 18 4.81553ZM4 18C4 10.268 10.268 4 18 4C25.732 4 32 10.268 32 18C32 25.732 25.732 32 18 32C10.268 32 4 25.732 4 18Z" fill="#00A580"/>
<path d="M24.3295 11.9533V20.6435C24.3295 21.1055 23.9556 21.4763 23.4936 21.4763H16.0193C15.5603 21.4763 15.1865 21.1025 15.1865 20.6435V11.9533M14.8465 15.2214L11.7188 14.6651C12.3267 13.4949 14.2538 9.77446 14.6003 9.21214C15.0562 8.47656 16.1839 8.47656 17.3663 8.47656C17.3663 8.47656 17.7493 10.7015 19.5578 10.7015C21.7828 10.7015 22.1293 8.47656 22.1293 8.47656C23.3117 8.47656 24.4424 8.47656 24.8953 9.21214C25.2418 9.77446 27.172 13.4949 27.7769 14.6651L24.6491 15.2214" stroke="#00A580" stroke-width="0.9" stroke-linecap="round" stroke-linejoin="round"/>
</svg>
