<svg width="36" height="36" viewBox="0 0 36 36" fill="none" xmlns="http://www.w3.org/2000/svg">
<circle cx="18" cy="18" r="18" fill="#80E8B6" fill-opacity="0.2"/>
<mask id="mask0_1796_16861" style="mask-type:alpha" maskUnits="userSpaceOnUse" x="4" y="4" width="28" height="28">
<circle cx="18" cy="18" r="14" fill="#D9D9D9"/>
</mask>
<g mask="url(#mask0_1796_16861)">
<path fill-rule="evenodd" clip-rule="evenodd" d="M21.7633 13.3643C21.9139 13.3147 22.0795 13.357 22.188 13.4726L23.1422 14.4893C23.1544 14.5022 23.1656 14.5158 23.1757 14.5299C23.7242 15.0943 24.4674 15.4353 25.2385 15.4552L28.2968 14.5986C28.4526 14.5549 28.6195 14.6075 28.7221 14.7326L28.4068 14.9912C28.7221 14.7326 28.7221 14.7326 28.7221 14.7326L28.7233 14.7342L28.7251 14.7364L28.7301 14.7426C28.734 14.7475 28.7391 14.7541 28.7454 14.7622C28.7579 14.7786 28.775 14.8014 28.7957 14.8305C28.8371 14.8888 28.8933 14.9725 28.9579 15.0806C29.0869 15.2967 29.2497 15.6114 29.3935 16.0166C29.682 16.8292 29.8926 18.0019 29.6062 19.4627C29.591 19.5401 29.5537 19.6115 29.4988 19.6681C29.4373 19.7315 29.3711 19.7577 29.3556 19.7639C29.3304 19.7739 29.3086 19.7797 29.2975 19.7824C29.2745 19.788 29.2546 19.791 29.2441 19.7924C29.2211 19.7955 29.1968 19.7975 29.1762 19.7989C29.133 19.8019 29.0755 19.8044 29.0079 19.8066C28.8712 19.811 28.6761 19.8146 28.4327 19.8177C27.9451 19.8239 27.2546 19.8277 26.4303 19.8298C24.781 19.834 22.5908 19.8312 20.404 19.8256C18.217 19.82 16.0329 19.8116 14.3955 19.8046C13.5767 19.8011 12.8947 19.7979 12.4173 19.7957L11.6674 19.792C11.6674 19.792 11.6672 19.792 11.6693 19.3842L11.6674 19.792C11.443 19.7908 11.2616 19.6086 11.2616 19.3842C11.2616 19.3582 11.2609 19.3259 11.2601 19.2882C11.2552 19.0424 11.2456 18.5666 11.3818 18.0878C11.5457 17.5112 11.9259 16.9008 12.7499 16.5795C14.77 15.7897 17.0237 14.9859 18.7705 14.38C19.6444 14.0769 20.3923 13.8231 20.9218 13.645C21.1865 13.5559 21.3967 13.4858 21.5408 13.4379C21.6129 13.414 21.6684 13.3956 21.7059 13.3832L21.7633 13.3643C21.7633 13.3643 21.7633 13.3643 21.8907 13.7516L21.7633 13.3643ZM21.7716 14.2206C21.6296 14.2679 21.4297 14.3346 21.1817 14.418C20.6542 14.5954 19.9088 14.8484 19.0378 15.1505C17.2949 15.755 15.0524 16.555 13.0465 17.3391C12.5113 17.5479 12.2768 17.9217 12.1662 18.3108C12.0995 18.5456 12.0798 18.7757 12.0752 18.9785L12.4212 18.9801C12.8985 18.9824 13.5804 18.9856 14.3989 18.9891C16.0361 18.9961 18.2198 19.0045 20.4061 19.0101C22.5926 19.0157 24.7811 19.0185 26.4282 19.0143C27.2519 19.0122 27.939 19.0084 28.4224 19.0022C28.5965 19 28.743 18.9976 28.8593 18.9948C29.0294 17.8432 28.8514 16.9271 28.625 16.2894C28.5014 15.9413 28.363 15.6751 28.2576 15.4986C28.2502 15.4862 28.2429 15.4741 28.2358 15.4626L25.4014 16.2565C25.3649 16.2667 25.327 16.2718 25.2891 16.2716C24.2432 16.2655 23.2526 15.8032 22.545 15.0503C22.5319 15.0363 22.5199 15.0217 22.5092 15.0065L21.7716 14.2206Z" fill="#00A580"/>
<path fill-rule="evenodd" clip-rule="evenodd" d="M11.6693 18.9765C11.8945 18.9765 12.0771 19.159 12.0771 19.3842C12.0771 20.2243 12.7586 20.9038 13.5967 20.9038H28.4041C28.6229 20.9038 28.801 20.7267 28.801 20.5069V19.3842C28.801 19.159 28.9835 18.9765 29.2087 18.9765C29.4339 18.9765 29.6165 19.159 29.6165 19.3842V20.5069C29.6165 21.1789 29.0715 21.7194 28.4041 21.7194H13.5967C12.309 21.7194 11.2616 20.6754 11.2616 19.3842C11.2616 19.159 11.4441 18.9765 11.6693 18.9765Z" fill="#00A580"/>
<path fill-rule="evenodd" clip-rule="evenodd" d="M18.8245 14.3916C19.0161 14.2731 19.2674 14.3324 19.3858 14.5239L22.2375 19.1344C22.3559 19.3259 22.2967 19.5772 22.1052 19.6957C21.9137 19.8141 21.6624 19.7549 21.5439 19.5634L18.6922 14.9529C18.5738 14.7614 18.633 14.5101 18.8245 14.3916Z" fill="#00A580"/>
<path fill-rule="evenodd" clip-rule="evenodd" d="M17.1909 15.0521C17.3824 14.9337 17.6337 14.993 17.7521 15.1846L20.1933 19.1345C20.3117 19.3261 20.2524 19.5774 20.0608 19.6958C19.8692 19.8141 19.6179 19.7548 19.4995 19.5633L17.0584 15.6134C16.94 15.4218 16.9993 15.1705 17.1909 15.0521Z" fill="#00A580"/>
<path fill-rule="evenodd" clip-rule="evenodd" d="M15.5139 15.6391C15.7056 15.5209 15.9568 15.5804 16.075 15.7721L18.1492 19.1348C18.2674 19.3265 18.2079 19.5777 18.0162 19.6959C17.8245 19.8142 17.5733 19.7546 17.4551 19.563L15.3809 16.2002C15.2627 16.0086 15.3222 15.7573 15.5139 15.6391Z" fill="#00A580"/>
<path fill-rule="evenodd" clip-rule="evenodd" d="M29.3936 13.3392C29.5869 13.4548 29.6498 13.7052 29.5342 13.8984L28.7567 15.1979C28.6411 15.3911 28.3907 15.454 28.1974 15.3384C28.0042 15.2228 27.9413 14.9724 28.0569 14.7791L28.8344 13.4797C28.95 13.2865 29.2004 13.2235 29.3936 13.3392Z" fill="#00A580"/>
<path fill-rule="evenodd" clip-rule="evenodd" d="M7.96495 22.2058C7.96495 21.9778 8.14978 21.793 8.37779 21.793H10.6714C10.8994 21.793 11.0842 21.9778 11.0842 22.2058C11.0842 22.4338 10.8994 22.6187 10.6714 22.6187H8.37779C8.14978 22.6187 7.96495 22.4338 7.96495 22.2058ZM21.9463 22.9395C22.4727 22.7113 23.0953 22.8616 23.4478 23.3209C23.8924 23.8998 23.7272 24.7173 23.1095 25.0936L15.9467 29.4395C15.8503 29.498 15.7341 29.5145 15.6252 29.4852L8.27039 27.5036C8.05023 27.4443 7.91985 27.2177 7.97916 26.9976C8.03848 26.7774 8.26504 26.647 8.48519 26.7063L15.6694 28.642L22.68 24.3884C22.8875 24.2618 22.9315 24.0043 22.7929 23.8238C22.6778 23.6737 22.4642 23.6153 22.2755 23.6968L16.5862 26.1914C16.3774 26.283 16.1339 26.1879 16.0423 25.9791C15.9508 25.7703 16.0458 25.5268 16.2546 25.4352L21.9448 22.9402L21.9463 22.9395Z" fill="#00A580"/>
<path fill-rule="evenodd" clip-rule="evenodd" d="M10.2612 22.1533C10.2902 21.9272 10.4971 21.7674 10.7232 21.7964L18.1043 22.7433C18.6473 22.8128 19.1111 23.2446 19.1111 23.8224C19.1111 24.4662 18.5446 24.9123 17.9447 24.9123H14.3404C14.1124 24.9123 13.9276 24.7274 13.9276 24.4994C13.9276 24.2714 14.1124 24.0866 14.3404 24.0866H17.9447C18.1753 24.0866 18.2854 23.9281 18.2854 23.8224C18.2854 23.7256 18.199 23.5878 17.9996 23.5623L10.6182 22.6153C10.392 22.5863 10.2322 22.3795 10.2612 22.1533Z" fill="#00A580"/>
<path fill-rule="evenodd" clip-rule="evenodd" d="M5.66797 21.0593C5.66797 20.8313 5.85281 20.6465 6.08081 20.6465H8.37439C8.6024 20.6465 8.78723 20.8313 8.78723 21.0593V27.9401C8.78723 28.1681 8.6024 28.3529 8.37439 28.3529H6.08081C5.85281 28.3529 5.66797 28.1681 5.66797 27.9401C5.66797 27.7121 5.85281 27.5272 6.08081 27.5272H7.96155V21.4722H6.08081C5.85281 21.4722 5.66797 21.2873 5.66797 21.0593Z" fill="#00A580"/>
<path fill-rule="evenodd" clip-rule="evenodd" d="M2 19.9128C2 19.6848 2.18484 19.5 2.41284 19.5H5.85321C6.08122 19.5 6.26605 19.6848 6.26605 19.9128V29.0872C6.26605 29.3152 6.08122 29.5 5.85321 29.5H2.41284C2.18484 29.5 2 29.3152 2 29.0872C2 28.8591 2.18484 28.6743 2.41284 28.6743H5.44037V20.3257H2.41284C2.18484 20.3257 2 20.1409 2 19.9128Z" fill="#00A580"/>
</g>
<path fill-rule="evenodd" clip-rule="evenodd" d="M18 4.81553C10.7184 4.81553 4.81553 10.7184 4.81553 18C4.81553 25.2816 10.7184 31.1845 18 31.1845C25.2816 31.1845 31.1845 25.2816 31.1845 18C31.1845 10.7184 25.2816 4.81553 18 4.81553ZM4 18C4 10.268 10.268 4 18 4C25.732 4 32 10.268 32 18C32 25.732 25.732 32 18 32C10.268 32 4 25.732 4 18Z" fill="#00A580"/>
</svg>
