<svg width="20" height="21" viewBox="0 0 20 21" fill="none" xmlns="http://www.w3.org/2000/svg">
<path d="M10 1.74219C4.47709 1.74219 0 5.20937 0 9.48696C0 12.271 1.89699 14.7109 4.74397 16.076C4.53482 16.8411 3.98668 18.8477 3.87652 19.2767C3.74133 19.8096 4.07621 19.8024 4.29527 19.6589C4.46726 19.5468 7.03567 17.8364 8.14379 17.0981C8.74503 17.1854 9.3655 17.2318 9.99996 17.2318C15.5228 17.2318 20 13.7638 20 9.48688C20.0001 5.20937 15.5229 1.74219 10 1.74219Z" fill="#391B1B"/>
<path d="M5.97647 7.32031H3.05222C2.77746 7.32031 2.55469 7.54301 2.55469 7.81754C2.55469 8.0923 2.77738 8.315 3.05222 8.315H4.00274V11.8179C4.00274 11.9452 4.05465 12.0705 4.14596 12.1612C4.23504 12.2512 4.36002 12.3031 4.48783 12.3031H4.59411C4.72147 12.3031 4.84593 12.2512 4.93538 12.1614C5.02647 12.0706 5.07853 11.9461 5.07853 11.8179V8.315H5.97654C6.25153 8.315 6.47422 8.09238 6.47422 7.81754C6.47415 7.54301 6.25153 7.32031 5.97647 7.32031Z" fill="#FAE300"/>
<path d="M13.0011 11.3676H11.6414V7.78998C11.6414 7.49161 11.4 7.25 11.102 7.25C10.804 7.25 10.5625 7.49161 10.5625 7.78998V11.6462C10.5625 11.6761 10.5663 11.7042 10.5709 11.7325C10.5656 11.7604 10.5625 11.7897 10.5625 11.8186C10.5625 12.0683 10.7638 12.2705 11.0139 12.2705H13.0012C13.2511 12.2705 13.4525 12.0682 13.4525 11.8186C13.4524 11.5699 13.2511 11.3676 13.0011 11.3676Z" fill="#FAE300"/>
<path d="M17.3498 11.5317L15.8343 9.54147L17.2035 8.17177C17.3889 7.98676 17.3889 7.68578 17.2037 7.50033C17.0185 7.31502 16.7177 7.31502 16.5317 7.50033L14.8368 9.19528V7.78998C14.8368 7.49161 14.5954 7.25 14.2975 7.25C13.9994 7.25 13.7578 7.49161 13.7578 7.78998V11.7646C13.7578 12.0632 13.9994 12.3042 14.2975 12.3042C14.5954 12.3042 14.8368 12.0632 14.8368 11.7646V10.5383L15.145 10.2305L16.5782 12.1114C16.7379 12.3245 17.0411 12.3682 17.2537 12.2074C17.4668 12.0475 17.5097 11.7447 17.3498 11.5317Z" fill="#FAE300"/>
<path d="M10.1619 11.6609L8.70468 7.67432C8.70468 7.67432 8.70125 7.67111 8.69991 7.66985C8.60644 7.42704 8.33779 7.25 8.01708 7.25C7.66128 7.25 7.36701 7.46733 7.30862 7.75185C7.29856 7.773 7.28866 7.7943 7.28069 7.81739L5.84776 11.6609C5.75928 11.9131 5.89185 12.1889 6.14307 12.2772C6.39482 12.3657 6.67121 12.2329 6.75977 11.9813L7.00764 11.2734H9.00201L9.24988 11.9813C9.33843 12.2329 9.61446 12.3657 9.86613 12.2772C10.1176 12.1889 10.2504 11.9131 10.1619 11.6609ZM7.32404 10.3701L7.99421 8.45785C8.00181 8.45785 8.00829 8.45986 8.01581 8.45986L8.68546 10.3701L7.32404 10.3701Z" fill="#FAE300"/>
</svg>
