<svg width="13" height="18" viewBox="0 0 13 18" fill="none" xmlns="http://www.w3.org/2000/svg">
<path fill-rule="evenodd" clip-rule="evenodd" d="M5.39148 17.53L6.27149 16.9412L7.15151 17.53C6.95499 17.8237 6.62489 18 6.27149 18C5.9181 18 5.588 17.8237 5.39148 17.53ZM6.90094 15.971C6.51678 16.5746 6.27149 16.9412 6.27149 16.9412C6.27149 16.9412 6.02621 16.5746 5.64204 15.971C4.25527 13.7923 1.05882 8.52587 1.05882 6.27149C1.05882 3.39262 3.39262 1.05882 6.27149 1.05882C9.15037 1.05882 11.4842 3.39262 11.4842 6.27149C11.4842 8.52587 8.28772 13.7923 6.90094 15.971ZM7.15151 17.53C7.15142 17.5301 7.15151 17.53 6.27149 16.9412C5.39148 17.53 5.39157 17.5301 5.39148 17.53L5.38691 17.5231L5.37492 17.5051L5.32963 17.4368C5.29029 17.3773 5.23307 17.2903 5.16051 17.179C5.01542 16.9564 4.80885 16.6363 4.56126 16.2434C4.06664 15.4587 3.40564 14.3796 2.7432 13.2066C2.08268 12.037 1.41067 10.7563 0.900762 9.57181C0.410033 8.43184 0 7.22855 0 6.27149C0 2.80784 2.80784 0 6.27149 0C9.73514 0 12.543 2.80784 12.543 6.27149C12.543 7.22855 12.133 8.43184 11.6422 9.57181C11.1323 10.7563 10.4603 12.037 9.79979 13.2066C9.13735 14.3796 8.47634 15.4587 7.98173 16.2434C7.73414 16.6363 7.52757 16.9564 7.38248 17.179C7.30992 17.2903 7.25269 17.3773 7.21336 17.4368L7.16807 17.5051L7.15608 17.5231L7.15151 17.53Z" fill="#2F2F2F"/>
<path fill-rule="evenodd" clip-rule="evenodd" d="M10.125 6.1875C10.125 8.36212 8.36212 10.125 6.1875 10.125C4.01288 10.125 2.25 8.36212 2.25 6.1875C2.25 4.01288 4.01288 2.25 6.1875 2.25C8.36212 2.25 10.125 4.01288 10.125 6.1875ZM6.1875 9.1592C7.82872 9.1592 9.1592 7.82872 9.1592 6.1875C9.1592 4.54628 7.82872 3.2158 6.1875 3.2158C4.54628 3.2158 3.2158 4.54628 3.2158 6.1875C3.2158 7.82872 4.54628 9.1592 6.1875 9.1592Z" fill="#2F2F2F"/>
</svg>
