<svg width="28" height="28" viewBox="0 0 28 28" fill="none" xmlns="http://www.w3.org/2000/svg">
<circle cx="14" cy="14" r="14" fill="#80E8B6" fill-opacity="0.2"/>
<g clip-path="url(#clip0_1796_7811)">
<path d="M19.3854 9.0142C20.2576 9.0142 20.9676 9.72414 20.9676 10.5963C20.9676 11.4686 20.2576 12.1785 19.3854 12.1785C18.5132 12.1785 17.8033 11.4686 17.8033 10.5963C17.8033 9.72414 18.5132 9.0142 19.3854 9.0142ZM19.3854 8C17.9452 8 16.7891 9.16633 16.7891 10.5963C16.7891 12.0264 17.9554 13.1927 19.3854 13.1927C20.8154 13.1927 21.9818 12.0264 21.9818 10.5963C21.9818 9.16633 20.8154 8 19.3854 8Z" fill="#00A580"/>
<path d="M14.0038 16.5298C14.3182 16.5298 14.6427 16.5704 14.947 16.6515C14.9977 16.6617 15.0383 16.682 15.089 16.6921C15.1397 16.7022 15.1803 16.7225 15.231 16.7327C16.1438 17.0471 16.9145 17.7164 17.3507 18.5785C17.3709 18.6191 17.3912 18.6698 17.4216 18.7205C17.4419 18.7611 17.4622 18.8118 17.4825 18.8625C17.5434 19.0045 17.5839 19.1465 17.6143 19.2682L10.3933 19.2884C10.4338 19.1465 10.4845 19.0045 10.5352 18.8625C10.5555 18.8118 10.5758 18.7712 10.5961 18.7205C10.6164 18.6698 10.6367 18.6292 10.6671 18.5785C11.1032 17.7164 11.874 17.0471 12.7868 16.7327C12.8273 16.7124 12.878 16.7022 12.9287 16.6921C12.9795 16.682 13.02 16.6617 13.0707 16.6515C13.375 16.5704 13.6894 16.5298 14.0139 16.5298M14.0139 15.5156C13.5981 15.5156 13.2026 15.5663 12.8172 15.6678C12.7563 15.688 12.6955 15.6982 12.6346 15.7185C12.5738 15.7387 12.5129 15.759 12.4521 15.7793C11.2857 16.185 10.3121 17.0268 9.76445 18.1221C9.73402 18.183 9.7036 18.2438 9.67317 18.3047C9.64274 18.3655 9.62246 18.4264 9.59203 18.4872C9.52104 18.6596 9.46019 18.8422 9.40948 19.0248C9.23706 19.6637 9.73402 20.2824 10.3933 20.2824H17.6042C18.2634 20.2824 18.7705 19.6536 18.588 19.0248C18.5373 18.8422 18.4764 18.6596 18.4054 18.4872C18.3851 18.4264 18.3547 18.3655 18.3243 18.3047C18.2939 18.2438 18.2634 18.183 18.233 18.1221C17.6752 17.0268 16.7117 16.185 15.5454 15.7793C15.4845 15.759 15.4237 15.7387 15.3628 15.7185C15.302 15.6982 15.2411 15.688 15.1803 15.6678C14.7949 15.5663 14.3993 15.5156 13.9835 15.5156H14.0139Z" fill="#00A580"/>
<path d="M8.62212 9.0142C9.49433 9.0142 10.2043 9.72414 10.2043 10.5963C10.2043 11.4686 9.49433 12.1785 8.62212 12.1785C7.7499 12.1785 7.03997 11.4686 7.03997 10.5963C7.03997 9.72414 7.7499 9.0142 8.62212 9.0142ZM8.62212 8C7.18195 8 6.01562 9.16633 6.01562 10.5963C6.01562 12.0264 7.18195 13.1927 8.61197 13.1927C10.042 13.1927 11.2083 12.0264 11.2083 10.5963C11.2083 9.16633 10.0521 8 8.62212 8Z" fill="#00A580"/>
<path d="M8.62283 14.5533C9.4139 14.5533 10.1746 14.8068 10.8034 15.2531C10.4382 15.4863 10.0934 15.7602 9.78915 16.0644C9.42404 16.4295 9.10964 16.8352 8.85609 17.2815H5.01228C5.46867 15.6689 6.9494 14.5533 8.62283 14.5533ZM8.62283 13.5391C6.4423 13.5391 4.6066 14.9995 4.03865 16.9975C3.85609 17.6466 4.34291 18.3058 5.02242 18.3058H9.47475C9.50518 18.2449 9.52546 18.1841 9.55589 18.1232C9.7993 17.6263 10.1137 17.18 10.5092 16.7946C10.9656 16.3383 11.493 15.9833 12.0812 15.7399C12.1725 15.6993 12.2537 15.6689 12.3449 15.6385C12.4058 15.6182 12.4666 15.5979 12.5275 15.5776C11.6654 14.3504 10.2354 13.5492 8.62283 13.5492V13.5391Z" fill="#00A580"/>
<path d="M14.0026 10.9908C14.8748 10.9908 15.5847 11.7007 15.5847 12.5729C15.5847 13.4451 14.8748 14.1551 14.0026 14.1551C13.1304 14.1551 12.4204 13.4451 12.4204 12.5729C12.4204 11.7007 13.1304 10.9908 14.0026 10.9908ZM14.0026 9.97656C12.5624 9.97656 11.4062 11.1429 11.4062 12.5729C11.4062 14.0029 12.5726 15.1693 14.0026 15.1693C15.4326 15.1693 16.5989 14.0029 16.5989 12.5729C16.5989 11.1429 15.4326 9.97656 14.0026 9.97656Z" fill="#00A580"/>
<path d="M19.389 14.5533C21.0523 14.5533 22.5432 15.6689 22.9894 17.2916H19.1558C18.9022 16.8454 18.5878 16.4397 18.2227 16.0746C17.9083 15.7602 17.5736 15.4863 17.2085 15.2632C17.8373 14.8068 18.598 14.5634 19.389 14.5634M19.389 13.5492C17.7765 13.5492 16.3464 14.3504 15.4844 15.5776C15.5452 15.5979 15.6061 15.6182 15.6669 15.6385C15.7582 15.6689 15.8393 15.7094 15.9306 15.7399C16.5189 15.9934 17.0462 16.3484 17.5026 16.7946C17.8982 17.1902 18.2126 17.6364 18.456 18.1232C18.4864 18.1841 18.5168 18.2449 18.5371 18.3058H22.9894C23.669 18.3058 24.1558 17.6567 23.9732 16.9975C23.4053 14.9995 21.5696 13.5391 19.389 13.5391V13.5492Z" fill="#00A580"/>
</g>
<defs>
<clipPath id="clip0_1796_7811">
<rect width="20" height="12.2819" fill="white" transform="translate(4 8)"/>
</clipPath>
</defs>
</svg>
