<svg width="28" height="28" viewBox="0 0 28 28" fill="none" xmlns="http://www.w3.org/2000/svg">
<circle cx="14" cy="14" r="14" fill="#80E8B6" fill-opacity="0.2"/>
<g clip-path="url(#clip0_1796_7779)">
<path d="M18.1404 19.4041H17.8203V17.6684H18.1404V17.8154C18.1902 17.7443 18.2993 17.6328 18.5103 17.6328C18.6099 17.6328 18.7712 17.6565 18.8992 17.7846C18.9822 17.8676 19.0699 18.0098 19.0699 18.2351C19.0699 18.4912 18.9561 18.6311 18.8921 18.6951C18.8067 18.7757 18.6739 18.8421 18.5056 18.8421C18.4273 18.8421 18.2661 18.8279 18.1404 18.6595V19.4065V19.4041ZM18.2163 17.9909C18.1452 18.0501 18.1096 18.1308 18.1096 18.2351C18.1096 18.3394 18.1523 18.4272 18.2139 18.4817C18.2566 18.5173 18.323 18.5576 18.4226 18.5576C18.5269 18.5576 18.5957 18.5149 18.6384 18.477C18.7071 18.4129 18.738 18.3205 18.738 18.2351C18.738 18.1497 18.7048 18.0573 18.6407 17.9956C18.5838 17.9434 18.4985 17.915 18.4226 17.915C18.3396 17.915 18.2732 17.9387 18.2163 17.9909Z" fill="#57EE9B"/>
<path d="M20.3699 17.7917C20.4837 17.8936 20.562 18.0501 20.562 18.2375C20.562 18.4248 20.4837 18.5789 20.3699 18.6809C20.2727 18.771 20.1257 18.8397 19.9099 18.8397C19.6941 18.8397 19.5471 18.7686 19.4499 18.6809C19.3361 18.5789 19.2578 18.4224 19.2578 18.2375C19.2578 18.0525 19.3361 17.8936 19.4499 17.7917C19.5471 17.7016 19.6941 17.6328 19.9099 17.6328C20.1257 17.6328 20.2727 17.7039 20.3699 17.7917ZM20.23 18.2375C20.23 18.0596 20.0925 17.915 19.9099 17.915C19.7273 17.915 19.5898 18.0596 19.5898 18.2375C19.5898 18.4153 19.7226 18.5576 19.9099 18.5576C20.0972 18.5576 20.23 18.4106 20.23 18.2375Z" fill="#57EE9B"/>
<path d="M21.1248 19.4041H20.8047V17.6684H21.1248V17.8154C21.1746 17.7443 21.2837 17.6328 21.4947 17.6328C21.5943 17.6328 21.7555 17.6565 21.8836 17.7846C21.9666 17.8676 22.0543 18.0098 22.0543 18.2351C22.0543 18.4912 21.9405 18.6311 21.8765 18.6951C21.7911 18.7757 21.6583 18.8421 21.49 18.8421C21.4117 18.8421 21.2505 18.8279 21.1248 18.6595V19.4065V19.4041ZM21.2007 17.9909C21.1295 18.0501 21.094 18.1308 21.094 18.2351C21.094 18.3394 21.1367 18.4272 21.1983 18.4817C21.241 18.5173 21.3074 18.5576 21.407 18.5576C21.5113 18.5576 21.5801 18.5149 21.6227 18.477C21.6915 18.4129 21.7223 18.3205 21.7223 18.2351C21.7223 18.1497 21.6891 18.0573 21.6251 17.9956C21.5682 17.9434 21.4828 17.915 21.407 17.915C21.324 17.915 21.2576 17.9387 21.2007 17.9909Z" fill="#57EE9B"/>
<path d="M22.5867 18.4297C22.7029 18.4297 22.7907 18.5198 22.7907 18.6336C22.7907 18.7474 22.7006 18.8375 22.5867 18.8375C22.4729 18.8375 22.3828 18.7474 22.3828 18.6336C22.3828 18.5198 22.4729 18.4297 22.5867 18.4297Z" fill="#57EE9B"/>
<path d="M12.9939 9.57015C12.0004 8.57662 10.6772 8.03125 9.26876 8.03125C7.86028 8.03125 6.53716 8.57662 5.54364 9.57015C4.63548 10.4783 4.1067 11.6592 4.01897 12.9254C4.00711 12.9752 4 13.025 4 13.0795V19.0691C4 19.4366 4.27506 19.7354 4.61414 19.7354C4.95321 19.7354 5.22827 19.4366 5.22827 19.0691V16.6718C5.33023 16.7951 5.43456 16.9113 5.54364 17.0228C5.56024 17.0394 5.57684 17.0536 5.59343 17.0678L6.46129 16.2C6.44469 16.1834 6.42572 16.1715 6.41149 16.1549C5.81158 15.555 5.42271 14.7939 5.28518 13.9521C5.28518 13.9094 5.27807 13.8644 5.26621 13.8193C5.24013 13.6201 5.22827 13.4541 5.22827 13.2976C5.22827 12.2188 5.64797 11.2039 6.41149 10.4404C7.98596 8.86591 10.5492 8.86591 12.1237 10.4404C12.1403 10.457 12.1545 10.4736 12.1687 10.4902L13.0389 9.61994C13.0223 9.60334 13.0081 9.58674 12.9915 9.57015H12.9939Z" fill="#57EE9B"/>
<path d="M18.5783 8.00237C16.5605 8.00237 14.8034 9.14291 13.919 10.8146C13.6866 10.383 13.3926 9.97994 13.0393 9.61952L12.169 10.4897C12.9017 11.2461 13.3072 12.2397 13.3072 13.2948C13.3072 14.35 12.8875 15.3886 12.124 16.1521C10.5661 17.71 8.04081 17.7242 6.4616 16.1972L5.59375 17.065C6.58253 18.0277 7.88194 18.5589 9.26671 18.5589C10.6752 18.5589 11.9983 18.0111 12.9918 17.0176C13.9877 16.0217 14.5355 14.6986 14.5355 13.2925C14.5355 13.2901 14.5355 13.2877 14.5355 13.2854C14.5355 13.2806 14.5355 13.2735 14.5355 13.2688C14.5355 11.0422 16.3471 9.23064 18.5736 9.23064C20.8001 9.23064 22.6141 11.0422 22.6141 13.2688C22.6141 14.2338 22.2679 15.1681 21.6419 15.8984C21.5352 16.0241 21.483 16.1829 21.4949 16.3442C21.5067 16.5078 21.5826 16.6572 21.7083 16.7639C21.8197 16.8587 21.962 16.9133 22.109 16.9133C22.2892 16.9133 22.4576 16.835 22.5761 16.6999C23.3942 15.7466 23.8447 14.5279 23.8447 13.2688C23.8447 10.3641 21.4807 8 18.576 8L18.5783 8.00237Z" fill="#00A580"/>
<path d="M16.3173 13.3281C15.9782 13.3281 15.7031 13.6032 15.7031 13.9423V19.1209C15.7031 19.46 15.9782 19.7351 16.3173 19.7351C16.6563 19.7351 16.9314 19.46 16.9314 19.1209V13.9423C16.9314 13.6032 16.6563 13.3281 16.3173 13.3281Z" fill="#00A580"/>
</g>
<defs>
<clipPath id="clip0_1796_7779">
<rect width="20" height="11.8605" fill="white" transform="translate(4 8)"/>
</clipPath>
</defs>
</svg>
