<svg width="28" height="28" viewBox="0 0 28 28" fill="none" xmlns="http://www.w3.org/2000/svg">
<circle cx="14" cy="14" r="14" fill="#80E8B6" fill-opacity="0.2"/>
<path fill-rule="evenodd" clip-rule="evenodd" d="M12.8498 7.90602L10.6557 15.5786L8.46835 7.90602H5.90602L9.41684 18.212H11.8871L12.4857 16.4656L12.2402 17.7896C12.2015 17.9982 12.3127 18.2058 12.5079 18.289C12.6071 18.3312 12.7144 18.3357 12.8123 18.3072L12.7442 18.5057C12.6187 18.872 12.2743 19.118 11.8871 19.118H9.41684C9.02905 19.118 8.68426 18.8712 8.55922 18.5041L5.0484 8.19817C4.95415 7.9215 4.99916 7.61635 5.16929 7.37868C5.33941 7.14101 5.61374 7 5.90602 7H8.46835C8.87307 7 9.2287 7.26842 9.33965 7.65762L10.657 12.2786L11.9787 7.65691C12.0899 7.26806 12.4454 7 12.8498 7H15.4192C15.7118 7 15.9863 7.14129 16.1564 7.37936C16.3265 7.61743 16.3711 7.92298 16.2763 8.19975L15.9758 9.07643C16.1367 9.01357 16.3027 8.95833 16.4733 8.91042C17.0374 8.7473 17.6414 8.67047 18.2788 8.67047C19.1398 8.67047 19.9377 8.8238 20.6498 9.1584C21.3606 9.48547 21.9435 9.96192 22.3654 10.594C22.7962 11.2347 23 11.9687 23 12.7617C23 13.2621 22.5944 13.6677 22.094 13.6677H20.4813L20.5297 13.6917C21.0201 13.9344 21.4556 14.2207 21.8224 14.558C22.2005 14.9055 22.4972 15.3114 22.6975 15.7749C22.9059 16.2457 23 16.7569 23 17.2918C23 17.8682 22.8867 18.4165 22.6354 18.9144C22.3939 19.4022 22.0439 19.8119 21.6025 20.1413L21.6008 20.1426C21.167 20.4649 20.6649 20.6956 20.1121 20.8479C19.558 21.0006 18.9586 21.0716 18.3213 21.0716C17.7244 21.0716 17.1353 20.9955 16.5559 20.8439L16.5483 20.8419C15.9519 20.6802 15.4016 20.432 14.9036 20.0943L14.8996 20.0916C14.3805 19.7355 13.9615 19.2796 13.6487 18.7322L13.6428 18.722C13.4835 18.4346 13.3671 18.1286 13.2895 17.8078L14.7066 15.8337H15.7674C15.5096 15.694 15.2657 15.541 15.0366 15.374L15.565 14.6379C15.8578 14.852 16.1843 15.0429 16.5446 15.2108C16.9646 15.3995 17.4058 15.5694 17.8683 15.7204C18.2741 15.8478 18.602 15.9729 18.8521 16.0956C19.1022 16.2135 19.2957 16.3315 19.4326 16.4495C19.5694 16.5674 19.6638 16.6972 19.7157 16.8388C19.7676 16.9756 19.7936 17.1313 19.7936 17.3059C19.7936 17.5136 19.7416 17.7023 19.6378 17.8722C19.534 18.0421 19.3736 18.1766 19.1565 18.2757C18.9442 18.37 18.6657 18.4172 18.3213 18.4172C18.024 18.4172 17.755 18.3889 17.5144 18.3323C17.2737 18.2757 17.0684 18.1813 16.8985 18.0492C16.7334 17.917 16.606 17.7448 16.5163 17.5324C16.4267 17.3154 16.3818 17.0511 16.3818 16.7397H14.0743C14.0743 17.0658 14.1105 17.3678 14.1829 17.6457C14.2425 17.8744 14.3267 18.0867 14.4353 18.2827C14.6807 18.7122 15.0063 19.0661 15.4121 19.3445C15.8227 19.6229 16.2804 19.8305 16.7853 19.9674C17.2902 20.0995 17.8022 20.1656 18.3213 20.1656C18.8923 20.1656 19.409 20.1018 19.8714 19.9744C20.3339 19.847 20.7302 19.6606 21.0606 19.4153C21.3956 19.1652 21.6504 18.8632 21.825 18.5092C22.0043 18.1553 22.094 17.7495 22.094 17.2918C22.094 16.8624 22.0185 16.4778 21.8675 16.138C21.7212 15.7983 21.5018 15.4939 21.2092 15.2249C20.9166 14.956 20.5556 14.7153 20.1262 14.5029C19.7015 14.2906 19.2131 14.0971 18.661 13.9225C18.3449 13.8282 18.0641 13.7291 17.8187 13.6252C17.5733 13.5214 17.3657 13.4129 17.1958 13.2996C17.0307 13.1817 16.9033 13.0566 16.8136 12.9245C16.7996 12.9019 16.7867 12.879 16.775 12.8556C16.7855 12.7677 16.7702 12.677 16.7283 12.5953C16.7166 12.5725 16.7031 12.551 16.6881 12.5309C16.6868 12.5113 16.6862 12.4915 16.6862 12.4715C16.6862 12.2639 16.7428 12.0727 16.8561 11.8982C16.974 11.7236 17.1463 11.5867 17.3728 11.4876C17.604 11.3838 17.8895 11.3319 18.2293 11.3319C18.5785 11.3319 18.8687 11.3932 19.0999 11.5159C19.3358 11.6386 19.5104 11.8085 19.6237 12.0256C19.7416 12.2379 19.8006 12.4833 19.8006 12.7617H22.094C22.094 12.4395 22.0523 12.1375 21.969 11.8557C21.8888 11.5845 21.77 11.332 21.6127 11.0983C21.2918 10.617 20.8435 10.2442 20.2678 9.97994C19.6968 9.71097 19.0338 9.57648 18.2788 9.57648C17.7125 9.57648 17.1935 9.64491 16.7216 9.78175C16.3094 9.89717 15.944 10.0594 15.6255 10.2684L15.8802 8.89467C15.9189 8.68606 15.8076 8.47855 15.6124 8.39535C15.4934 8.34459 15.3625 8.3484 15.2505 8.39821L15.4192 7.90602H12.8498ZM18.841 17.1357C18.8567 17.1492 18.8656 17.1589 18.87 17.1641C18.8766 17.1832 18.8875 17.2266 18.8875 17.3059C18.8875 17.3538 18.878 17.3778 18.8652 17.399C18.8652 17.399 18.862 17.4024 18.8576 17.4061C18.8482 17.414 18.8264 17.4299 18.785 17.4493C18.7281 17.4736 18.589 17.5112 18.3213 17.5112C18.0803 17.5112 17.8825 17.4881 17.7219 17.4504C17.5936 17.4202 17.5129 17.3779 17.46 17.338C17.4247 17.3086 17.387 17.264 17.3525 17.1835C17.3206 17.1049 17.2878 16.9661 17.2878 16.7397C17.2878 16.6442 17.2731 16.5521 17.2457 16.4657C17.3584 16.5055 17.4721 16.5442 17.587 16.5817L17.5969 16.5848C17.9792 16.7048 18.2597 16.8141 18.4531 16.909L18.4656 16.915C18.6764 17.0144 18.7897 17.0915 18.841 17.1357ZM18.9342 13.0587L18.9457 13.0623C18.9126 12.9682 18.8946 12.8671 18.8946 12.7617C18.8946 12.6145 18.8645 12.5247 18.8317 12.4656C18.8278 12.4586 18.8241 12.4517 18.8204 12.4447C18.8006 12.4066 18.7679 12.3645 18.6819 12.3198L18.6752 12.3163C18.6111 12.2822 18.4779 12.2379 18.2293 12.2379C17.9761 12.2379 17.8259 12.2773 17.7439 12.3141L17.7359 12.3177C17.6528 12.354 17.622 12.3856 17.6109 12.3998C17.6002 12.418 17.5949 12.4333 17.5931 12.4523C17.6167 12.4778 17.6539 12.5124 17.7109 12.554C17.8208 12.6259 17.9715 12.7061 18.1717 12.7908C18.3803 12.8791 18.6287 12.9674 18.9202 13.0544L18.9342 13.0587Z" fill="#00A580"/>
<path fill-rule="evenodd" clip-rule="evenodd" d="M15.6141 8.3957C15.8092 8.4789 15.9205 8.68641 15.8818 8.89502L15.2413 12.3495H16.3268C16.4967 12.3495 16.6523 12.4445 16.7299 12.5957C16.8074 12.7468 16.7939 12.9286 16.6948 13.0667L13.0552 18.1368C12.9315 18.3091 12.7047 18.3725 12.5095 18.2893C12.3144 18.2061 12.2031 17.9986 12.2418 17.79L12.8823 14.3355H11.7968C11.6269 14.3355 11.4713 14.2405 11.3937 14.0893C11.3162 13.9382 11.3297 13.7564 11.4288 13.6184L15.0684 8.54825C15.1921 8.3759 15.4189 8.3125 15.6141 8.3957ZM12.6796 13.4295H13.4271C13.5617 13.4295 13.6893 13.4894 13.7754 13.5929C13.8614 13.6964 13.897 13.8328 13.8725 13.9651L13.5026 15.9599L15.444 13.2555H14.6965C14.5619 13.2555 14.4343 13.1956 14.3482 13.0921C14.2622 12.9886 14.2266 12.8522 14.2511 12.7199L14.621 10.7251L12.6796 13.4295Z" fill="#00A580"/>
</svg>
