<svg width="28" height="28" viewBox="0 0 28 28" fill="none" xmlns="http://www.w3.org/2000/svg">
<circle cx="14" cy="14" r="14" fill="#80E8B6" fill-opacity="0.2"/>
<path d="M5.8547 6H22.1453C22.3561 6 22.5 6.16166 22.5 6.32831V21.1717C22.5 21.3383 22.3561 21.5 22.1453 21.5H5.8547C5.64391 21.5 5.5 21.3383 5.5 21.1717V6.32831C5.5 6.16166 5.64391 6 5.8547 6Z" stroke="#00A580" stroke-linecap="round" stroke-linejoin="round"/>
<path d="M7.13281 10H20.8736" stroke="#00A580" stroke-linecap="round" stroke-linejoin="round"/>
<path d="M10.3438 7.4C10.6769 7.4 10.9438 7.67044 10.9438 8C10.9438 8.33382 10.6776 8.6 10.3438 8.6C10.0099 8.6 9.74375 8.33382 9.74375 8C9.74375 7.66618 10.0099 7.4 10.3438 7.4Z" stroke="#00A580" stroke-width="0.3"/>
<path d="M17.6875 7.4C18.0207 7.4 18.2875 7.67044 18.2875 8C18.2875 8.33382 18.0213 8.6 17.6875 8.6C17.3537 8.6 17.0875 8.33382 17.0875 8C17.0875 7.66618 17.3537 7.4 17.6875 7.4Z" stroke="#00A580" stroke-width="0.3"/>
<path d="M10 17.2016C10.1225 17.0944 10.2757 16.9681 10.4556 16.8302C10.6356 16.6886 10.8232 16.5354 11.0223 16.367C11.2175 16.2062 11.409 16.03 11.6004 15.8501C11.7918 15.6663 11.9679 15.4787 12.1249 15.2835C12.2781 15.0882 12.4006 14.8929 12.4925 14.6938C12.5882 14.4986 12.6341 14.2995 12.6341 14.0966C12.6341 13.8822 12.5461 13.7022 12.3661 13.5644C12.1862 13.4265 11.9679 13.3576 11.7114 13.3576C11.4204 13.3576 11.1639 13.3997 10.9495 13.4878C10.7351 13.5759 10.5092 13.7099 10.2757 13.8936L10.1608 12.8714C10.4365 12.7489 10.716 12.6531 11.0031 12.5919C11.2903 12.5306 11.5583 12.5 11.8148 12.5C12.0713 12.5 12.3278 12.5345 12.5576 12.5995C12.7873 12.6685 12.9864 12.768 13.1625 12.902C13.331 13.0437 13.4611 13.216 13.5607 13.4189C13.6564 13.6256 13.7062 13.863 13.7062 14.1387C13.7062 14.3186 13.6755 14.4947 13.6104 14.6747C13.5454 14.8508 13.4611 15.0269 13.3578 15.1916C13.2544 15.36 13.1357 15.5208 13.0055 15.6778C12.8715 15.8348 12.7375 15.9841 12.6035 16.1219C12.4312 16.3057 12.2513 16.4895 12.0637 16.6733C11.8761 16.857 11.654 17.0523 11.3936 17.2552L11.3209 17.305H12.9902C13.0974 17.305 13.2276 17.305 13.3807 17.2973C13.53 17.2935 13.6679 17.282 13.7866 17.2744V18.1971C13.6794 18.1933 13.553 18.1856 13.4114 18.1818C13.2697 18.1779 13.1433 18.1741 13.0361 18.1741H10.0038V17.194L10 17.2016Z" fill="#00A580"/>
<path d="M14.5626 12.5933H17.0436C17.1585 12.5933 17.2886 12.5933 17.4418 12.5856C17.5911 12.5818 17.7251 12.5741 17.84 12.5703V13.4777C17.7328 13.4662 17.6064 13.4586 17.4647 13.4547C17.3231 13.4509 17.1967 13.4471 17.0895 13.4471H15.5734C15.5581 13.7266 15.5466 13.9448 15.5351 14.098C15.5274 14.2511 15.5198 14.366 15.5159 14.4349C15.5121 14.5115 15.5083 14.5574 15.5045 14.5765C15.5045 14.5957 15.5006 14.6072 15.5006 14.611C15.581 14.5995 15.6691 14.5919 15.761 14.588C15.8529 14.5842 15.9486 14.5804 16.052 14.5804C16.3276 14.5804 16.5841 14.6263 16.8215 14.7144C17.0589 14.8024 17.2657 14.925 17.4379 15.0819C17.6102 15.2427 17.7481 15.4342 17.8476 15.6486C17.9472 15.863 17.9969 16.1004 17.9969 16.3531C17.9969 16.667 17.9395 16.9427 17.8246 17.1839C17.7098 17.4251 17.549 17.6242 17.3499 17.7888C17.1431 17.9496 16.9058 18.0721 16.6301 18.1525C16.3544 18.2329 16.0596 18.275 15.7457 18.275C15.4547 18.275 15.1829 18.2521 14.934 18.2023C14.6851 18.1525 14.4975 18.1066 14.375 18.0645L14.4171 17.0422C14.666 17.1839 14.8919 17.2796 15.0948 17.3332C15.2977 17.3868 15.5006 17.4136 15.7074 17.4136C15.8682 17.4136 16.0252 17.3945 16.1745 17.36C16.3238 17.3255 16.454 17.2681 16.5688 17.1839C16.6837 17.1073 16.7718 17.0116 16.8407 16.8929C16.9096 16.7742 16.9402 16.6325 16.9402 16.4641C16.9402 16.2688 16.9096 16.108 16.8483 15.974C16.7871 15.84 16.699 15.7366 16.5841 15.6524C16.4693 15.572 16.3353 15.5146 16.1783 15.4763C16.0213 15.4418 15.8529 15.4227 15.6691 15.4227C15.4623 15.4227 15.2556 15.4457 15.0488 15.4878C14.8421 15.5299 14.643 15.6065 14.4516 15.7137L14.5741 12.5856L14.5626 12.5933Z" fill="#00A580"/>
</svg>
