<svg width="20" height="20" viewBox="0 0 20 20" fill="none" xmlns="http://www.w3.org/2000/svg">
<g clip-path="url(#clip0_2063_97844)">
<path d="M7.27779 8.43301C7.27779 6.47699 8.14351 4.72744 9.51634 3.54297C6.17663 3.79653 3.54688 6.58566 3.54688 9.98695C3.54688 13.5585 6.44105 16.4527 10.0126 16.4527C11.6281 16.4527 13.106 15.8586 14.2398 14.877C14.0731 14.8879 13.9101 14.8987 13.7435 14.8987C10.172 14.8987 7.27779 12.0045 7.27779 8.43301Z" stroke="#00A580" stroke-linecap="round" stroke-linejoin="round"/>
<path d="M14.7067 6.8587C15.0668 6.8587 15.3587 6.56679 15.3587 6.20669C15.3587 5.8466 15.0668 5.55469 14.7067 5.55469C14.3466 5.55469 14.0547 5.8466 14.0547 6.20669C14.0547 6.56679 14.3466 6.8587 14.7067 6.8587Z" fill="#00A580"/>
<path d="M11.2223 9.68682C11.5824 9.68682 11.8743 9.39491 11.8743 9.03482C11.8743 8.67473 11.5824 8.38281 11.2223 8.38281C10.8622 8.38281 10.5703 8.67473 10.5703 9.03482C10.5703 9.39491 10.8622 9.68682 11.2223 9.68682Z" fill="#00A580"/>
<path d="M16.4446 10.5543C16.4446 10.9166 16.1512 11.2064 15.7926 11.2064C15.434 11.2064 15.1406 10.913 15.1406 10.5543C15.1406 10.1957 15.434 9.90234 15.7926 9.90234C16.1512 9.90234 16.4446 10.1957 16.4446 10.5543Z" fill="#00A580"/>
</g>
<defs>
<clipPath id="clip0_2063_97844">
<rect width="13.4422" height="14" fill="white" transform="translate(3 3)"/>
</clipPath>
</defs>
</svg>
