<svg width="36" height="36" viewBox="0 0 36 36" fill="none" xmlns="http://www.w3.org/2000/svg">
<circle cx="18" cy="18" r="18" fill="#80E8B6" fill-opacity="0.2"/>
<path fill-rule="evenodd" clip-rule="evenodd" d="M18 4.75667C10.6859 4.75667 4.75667 10.6859 4.75667 18C4.75667 25.3141 10.6859 31.2433 18 31.2433C25.3141 31.2433 31.2433 25.3141 31.2433 18C31.2433 10.6859 25.3141 4.75667 18 4.75667ZM3.9375 18C3.9375 10.2335 10.2335 3.9375 18 3.9375C25.7665 3.9375 32.0625 10.2335 32.0625 18C32.0625 25.7665 25.7665 32.0625 18 32.0625C10.2335 32.0625 3.9375 25.7665 3.9375 18Z" fill="#00A580"/>
<path fill-rule="evenodd" clip-rule="evenodd" d="M19.3653 8.85255C18.0842 8.85255 17.0443 9.89247 17.0443 11.1735C17.0443 11.3998 16.8609 11.5831 16.6347 11.5831C16.4085 11.5831 16.2251 11.3998 16.2251 11.1735C16.2251 9.44005 17.6318 8.03337 19.3653 8.03337H20.7306C22.4641 8.03337 23.8708 9.44005 23.8708 11.1735V30.5143C23.8708 30.7405 23.6874 30.9238 23.4612 30.9238C23.235 30.9238 23.0516 30.7405 23.0516 30.5143V11.1735C23.0516 9.89247 22.0117 8.85255 20.7306 8.85255H19.3653Z" fill="#00A580"/>
<path fill-rule="evenodd" clip-rule="evenodd" d="M16.6347 11.5722C15.0942 11.5722 13.8441 12.8224 13.8441 14.3629C13.8441 14.5891 13.6607 14.7725 13.4345 14.7725C13.2083 14.7725 13.0249 14.5891 13.0249 14.3629C13.0249 12.37 14.6418 10.753 16.6347 10.753C18.6276 10.753 20.2445 12.37 20.2445 14.3629C20.2445 14.5891 20.0612 14.7725 19.835 14.7725C19.6087 14.7725 19.4254 14.5891 19.4254 14.3629C19.4254 12.8224 18.1752 11.5722 16.6347 11.5722Z" fill="#00A580"/>
<path fill-rule="evenodd" clip-rule="evenodd" d="M13.0495 15.0592C12.9937 15.0592 12.9484 15.1044 12.9484 15.1602V15.1629C12.9484 15.2187 12.9937 15.264 13.0495 15.264H20.22C20.2758 15.264 20.321 15.2187 20.321 15.1629V15.1602C20.321 15.1044 20.2758 15.0592 20.22 15.0592H13.0495ZM12.1292 15.1602C12.1292 14.652 12.5412 14.24 13.0495 14.24H20.22C20.7282 14.24 21.1402 14.652 21.1402 15.1602V15.1629C21.1402 15.6711 20.7282 16.0831 20.22 16.0831H13.0495C12.5412 16.0831 12.1292 15.6711 12.1292 15.1629V15.1602Z" fill="#00A580"/>
<path fill-rule="evenodd" clip-rule="evenodd" d="M16.6347 17.4539C16.8609 17.4539 17.0443 17.6373 17.0443 17.8635V18.1365C17.0443 18.3627 16.8609 18.5461 16.6347 18.5461C16.4085 18.5461 16.2251 18.3627 16.2251 18.1365V17.8635C16.2251 17.6373 16.4085 17.4539 16.6347 17.4539Z" fill="#00A580"/>
<path fill-rule="evenodd" clip-rule="evenodd" d="M16.6347 18.71C16.8609 18.71 17.0443 18.8933 17.0443 19.1195V21.4678C17.0443 21.694 16.8609 21.8774 16.6347 21.8774C16.4085 21.8774 16.2251 21.694 16.2251 21.4678V19.1195C16.2251 18.8933 16.4085 18.71 16.6347 18.71Z" fill="#00A580"/>
<path fill-rule="evenodd" clip-rule="evenodd" d="M16.6347 21.5498C16.8609 21.5498 17.0443 21.7331 17.0443 21.9593V22.2324C17.0443 22.4586 16.8609 22.642 16.6347 22.642C16.4085 22.642 16.2251 22.4586 16.2251 22.2324V21.9593C16.2251 21.7331 16.4085 21.5498 16.6347 21.5498Z" fill="#00A580"/>
<path fill-rule="evenodd" clip-rule="evenodd" d="M15.1215 17.5416C15.34 17.6001 15.4697 17.8247 15.4111 18.0432L15.3401 18.3081C15.2815 18.5266 15.0569 18.6563 14.8384 18.5977C14.6199 18.5391 14.4903 18.3145 14.5489 18.096L14.6199 17.8312C14.6784 17.6127 14.903 17.483 15.1215 17.5416Z" fill="#00A580"/>
<path fill-rule="evenodd" clip-rule="evenodd" d="M14.7968 18.7567C15.0153 18.8154 15.1448 19.0401 15.0861 19.2586L14.4772 21.525C14.4185 21.7434 14.1938 21.8729 13.9753 21.8142C13.7569 21.7556 13.6274 21.5309 13.6861 21.3124L14.295 19.046C14.3537 18.8276 14.5783 18.6981 14.7968 18.7567Z" fill="#00A580"/>
<path fill-rule="evenodd" clip-rule="evenodd" d="M14.062 21.4982C14.2805 21.5568 14.4102 21.7814 14.3516 21.9999L14.2806 22.2647C14.2221 22.4832 13.9975 22.6129 13.779 22.5543C13.5605 22.4957 13.4308 22.2711 13.4894 22.0526L13.5604 21.7878C13.619 21.5693 13.8436 21.4396 14.062 21.4982Z" fill="#00A580"/>
<path fill-rule="evenodd" clip-rule="evenodd" d="M18.1479 17.5416C18.3664 17.483 18.591 17.6127 18.6496 17.8312L18.7206 18.096C18.7791 18.3145 18.6495 18.5391 18.431 18.5977C18.2125 18.6563 17.9879 18.5266 17.9293 18.3081L17.8583 18.0432C17.7998 17.8247 17.9294 17.6001 18.1479 17.5416Z" fill="#00A580"/>
<path fill-rule="evenodd" clip-rule="evenodd" d="M18.4726 18.7567C18.6911 18.6981 18.9157 18.8276 18.9744 19.046L19.5834 21.3124C19.6421 21.5309 19.5125 21.7556 19.2941 21.8142C19.0756 21.8729 18.8509 21.7434 18.7922 21.525L18.1833 19.2586C18.1246 19.0401 18.2541 18.8154 18.4726 18.7567Z" fill="#00A580"/>
<path fill-rule="evenodd" clip-rule="evenodd" d="M19.2074 21.4982C19.4259 21.4396 19.6505 21.5693 19.709 21.7878L19.78 22.0526C19.8386 22.2711 19.7089 22.4957 19.4904 22.5543C19.272 22.6129 19.0473 22.4832 18.9888 22.2647L18.9178 21.9999C18.8592 21.7814 18.9889 21.5568 19.2074 21.4982Z" fill="#00A580"/>
</svg>
