<svg width="30" height="22" viewBox="0 0 30 22" fill="none" xmlns="http://www.w3.org/2000/svg">
<path d="M21.118 16.1384V20.3509C21.118 20.7073 20.8299 21 20.4791 21H1.63887C1.28812 21 1 20.7073 1 20.3509V1.64906C1 1.29271 1.28812 1 1.63887 1H20.4854C20.8361 1 21.1243 1.29271 21.1243 1.64906V8.76328" stroke="#57EE9B" stroke-width="1.5" stroke-miterlimit="10"/>
<path d="M18.1616 4.41406H3.9375V5.94763H18.1616V4.41406Z" fill="#57EE9B"/>
<path d="M18.1616 8.29688H3.9375V9.83044H18.1616V8.29688Z" fill="#57EE9B"/>
<path d="M16.9152 13.7069H3.9375V12.1797H18.1679L16.9152 13.7069Z" fill="#57EE9B"/>
<path d="M15.6312 16.0625H3.9375V17.5961H15.6312V16.0625Z" fill="#57EE9B"/>
<path d="M27.7013 8.30786L24.1562 5.18982L25.4465 3.65625L28.9978 6.76793L27.7013 8.30786Z" stroke="#57EE9B" stroke-width="1.5" stroke-linecap="round" stroke-linejoin="round"/>
<path d="M27.7053 8.31335L20.7467 16.4775L17.1953 13.3595L24.1539 5.19531L27.7053 8.31335Z" stroke="#57EE9B" stroke-width="1.5" stroke-linecap="round" stroke-linejoin="round"/>
<path d="M17.1868 13.3594L16.7734 15.7265L18.5209 17.2665L20.7382 16.4774L17.1868 13.3594Z" stroke="#57EE9B" stroke-width="1.5" stroke-linecap="round" stroke-linejoin="round"/>
<path d="M17.7903 17.5338L18.5294 17.2665L17.9344 16.7447L17.6525 16.4965L16.7756 15.7266L16.6378 16.5093L16.5126 17.2474C16.4374 17.6801 16.7067 17.9092 17.1139 17.7692L17.5648 17.6101L17.6149 17.591L17.784 17.5338H17.7903Z" stroke="#57EE9B" stroke-width="1.5" stroke-linecap="round" stroke-linejoin="round"/>
</svg>
