<svg width="12" height="12" viewBox="0 0 12 12" fill="none" xmlns="http://www.w3.org/2000/svg">
<circle cx="6" cy="6" r="6" fill="#57EE9B"/>
<path d="M6.54179 7.63143H5.47303C5.25491 7.63143 5.14586 7.52237 5.14586 7.30426L4.79688 2.12405C4.79688 1.90593 4.89503 1.79688 5.11314 1.79688H6.87987C7.09798 1.79688 7.20704 1.90593 7.19613 2.12405L6.86896 7.30426C6.86896 7.52237 6.7599 7.63143 6.54179 7.63143ZM5.99688 10.1969C5.44068 10.1969 5.00446 9.76065 5.00446 9.20446C5.00446 8.64826 5.44068 8.21204 5.99688 8.21204C6.55307 8.21204 6.98929 8.64826 6.98929 9.20446C6.98929 9.76065 6.55307 10.1969 5.99688 10.1969Z" fill="white"/>
</svg>
