<svg width="28" height="28" viewBox="0 0 28 28" fill="none" xmlns="http://www.w3.org/2000/svg">
<circle cx="14" cy="14" r="14" fill="#80E8B6" fill-opacity="0.2"/>
<path fill-rule="evenodd" clip-rule="evenodd" d="M15.75 13.5C15.75 13.2239 15.9739 13 16.25 13H22.25C22.5261 13 22.75 13.2239 22.75 13.5C22.75 13.7761 22.5261 14 22.25 14H16.25C15.9739 14 15.75 13.7761 15.75 13.5Z" fill="#00A580"/>
<path fill-rule="evenodd" clip-rule="evenodd" d="M19.25 10C19.5261 10 19.75 10.2239 19.75 10.5L19.75 16.5C19.75 16.7761 19.5261 17 19.25 17C18.9739 17 18.75 16.7761 18.75 16.5L18.75 10.5C18.75 10.2239 18.9739 10 19.25 10Z" fill="#00A580"/>
<path d="M11.7395 15.5603C12.2495 15.5603 12.7495 15.6203 13.2295 15.7503C13.3095 15.7703 13.3795 15.7903 13.4495 15.8103C13.5195 15.8303 13.5995 15.8603 13.6695 15.8803C15.1095 16.3803 16.3295 17.4403 17.0295 18.8003C17.0695 18.8703 17.0995 18.9503 17.1395 19.0203C17.1695 19.0903 17.2095 19.1703 17.2395 19.2403C17.3295 19.4603 17.4095 19.6903 17.4695 19.9203C17.5195 20.0903 17.4395 20.2303 17.3895 20.3003C17.3395 20.3603 17.2195 20.5003 16.9895 20.5003H6.48951C6.26951 20.5003 6.13951 20.3603 6.08951 20.3003C6.03951 20.2303 5.95951 20.1003 6.00951 19.9203C6.06951 19.6903 6.14951 19.4603 6.23951 19.2503C6.26951 19.1803 6.29951 19.1003 6.33951 19.0303C6.36951 18.9603 6.40951 18.8803 6.44951 18.8103C7.13951 17.4503 8.36951 16.3803 9.80951 15.8903C9.87951 15.8603 9.95951 15.8403 10.0295 15.8203C10.0995 15.8003 10.1795 15.7803 10.2495 15.7603C10.7295 15.6303 11.2395 15.5703 11.7395 15.5703M11.7395 14.5703C11.1395 14.5703 10.5495 14.6503 9.99951 14.7903C9.90951 14.8103 9.81951 14.8403 9.73951 14.8603C9.64951 14.8903 9.56951 14.9103 9.47951 14.9403C7.76951 15.5303 6.36951 16.7603 5.55951 18.3503C5.51951 18.4403 5.46951 18.5203 5.42951 18.6103C5.38951 18.7003 5.34951 18.7803 5.31951 18.8703C5.21951 19.1303 5.12951 19.3903 5.04951 19.6603C4.79951 20.5903 5.52951 21.5003 6.48951 21.5003H16.9895C17.9495 21.5003 18.6795 20.5903 18.4295 19.6603C18.3595 19.3903 18.2695 19.1303 18.1595 18.8703C18.1195 18.7803 18.0895 18.7003 18.0495 18.6103C18.0095 18.5203 17.9695 18.4403 17.9195 18.3503C17.1095 16.7603 15.7095 15.5303 13.9995 14.9403C13.9095 14.9103 13.8295 14.8803 13.7395 14.8603C13.6495 14.8303 13.5695 14.8103 13.4795 14.7903C12.9195 14.6503 12.3395 14.5703 11.7395 14.5703Z" fill="#00A580"/>
<path d="M11.7431 7.5C13.2831 7.5 14.5331 8.75 14.5331 10.29C14.5331 11.83 13.2831 13.08 11.7431 13.08C10.2031 13.08 8.95312 11.83 8.95312 10.29C8.95312 8.75 10.2031 7.5 11.7431 7.5ZM11.7431 6.5C9.65312 6.5 7.95312 8.2 7.95312 10.29C7.95312 12.38 9.65312 14.08 11.7431 14.08C13.8331 14.08 15.5331 12.38 15.5331 10.29C15.5331 8.2 13.8331 6.5 11.7431 6.5Z" fill="#00A580"/>
</svg>
