<svg width="36" height="36" viewBox="0 0 36 36" fill="none" xmlns="http://www.w3.org/2000/svg">
<circle cx="18" cy="18" r="18" fill="#80E8B6" fill-opacity="0.2"/>
<circle cx="18.065" cy="18.065" r="13.565" stroke="#00A580"/>
<path fill-rule="evenodd" clip-rule="evenodd" d="M13.5889 10.8184C13.5889 10.6426 13.7315 10.5 13.9073 10.5H25.1816C25.3574 10.5 25.5 10.6426 25.5 10.8184V22.0927C25.5 22.2685 25.3574 22.4111 25.1816 22.4111C25.0057 22.4111 24.8632 22.2685 24.8632 22.0927V11.1368H13.9073C13.7315 11.1368 13.5889 10.9943 13.5889 10.8184Z" fill="#00A580"/>
<path fill-rule="evenodd" clip-rule="evenodd" d="M11.3048 10.5C11.4806 10.5 11.6232 10.6426 11.6232 10.8184V24.3763H25.1811C25.3569 24.3763 25.4995 24.5188 25.4995 24.6947C25.4995 24.8706 25.3569 25.0131 25.1811 25.0131H11.3048C11.1289 25.0131 10.9864 24.8706 10.9864 24.6947V10.8184C10.9864 10.6426 11.1289 10.5 11.3048 10.5Z" fill="#00A580"/>
<path fill-rule="evenodd" clip-rule="evenodd" d="M11.0801 10.5933C11.2045 10.4689 11.4061 10.4689 11.5304 10.5933L13.0173 12.0801C13.1417 12.2045 13.1417 12.4061 13.0173 12.5304C12.893 12.6548 12.6914 12.6548 12.567 12.5304L11.3053 11.2687L10.0436 12.5304C9.91922 12.6548 9.71761 12.6548 9.59326 12.5304C9.46891 12.4061 9.46891 12.2045 9.59326 12.0801L11.0801 10.5933Z" fill="#00A580"/>
<path fill-rule="evenodd" clip-rule="evenodd" d="M23.4692 22.9828C23.5935 22.8585 23.7951 22.8585 23.9195 22.9828L25.4064 24.4697C25.5307 24.5941 25.5307 24.7957 25.4064 24.92L23.9195 26.4069C23.7951 26.5312 23.5935 26.5312 23.4692 26.4069C23.3448 26.2826 23.3448 26.0809 23.4692 25.9566L24.7309 24.6949L23.4692 23.4331C23.3448 23.3088 23.3448 23.1072 23.4692 22.9828Z" fill="#00A580"/>
<path d="M15.9395 16.8724L15.9618 17.179C16.157 16.9393 16.4209 16.8203 16.7517 16.8203C17.1049 16.8203 17.3484 16.9597 17.4803 17.2404C17.6736 16.9616 17.9487 16.8203 18.3055 16.8203C18.6029 16.8203 18.8259 16.9077 18.9709 17.0805C19.1159 17.2534 19.1902 17.5154 19.1902 17.8648V19.6212H18.4542V17.8686C18.4542 17.7124 18.4245 17.5991 18.3632 17.5266C18.3018 17.4541 18.194 17.4188 18.0398 17.4188C17.8186 17.4188 17.6662 17.5247 17.5825 17.7347V19.6231H16.8503V17.8723C16.8503 17.7124 16.8187 17.5972 16.7555 17.5266C16.6923 17.456 16.5863 17.4206 16.4358 17.4206C16.2276 17.4206 16.0771 17.5061 15.9841 17.679V19.6231H15.25V16.8742H15.9395V16.8724Z" fill="#00A580"/>
<path d="M21.2338 17.9221H19.6577V17.5708L20.3863 16.9184C20.4811 16.8348 20.5498 16.7586 20.5907 16.6861C20.6316 16.6155 20.652 16.5597 20.652 16.5207C20.652 16.3776 20.5721 16.307 20.4104 16.307C20.3249 16.307 20.258 16.333 20.2078 16.3869C20.1577 16.4408 20.1335 16.5058 20.1335 16.5876H19.6094C19.6094 16.3906 19.6819 16.2252 19.8268 16.0914C19.9718 15.9575 20.1577 15.8906 20.3863 15.8906C20.6372 15.8906 20.8305 15.9445 20.9662 16.0542C21.1018 16.1638 21.1706 16.3181 21.1706 16.5207C21.1706 16.6396 21.1409 16.7474 21.0795 16.8459C21.0182 16.9445 20.8974 17.0671 20.7134 17.2139L20.3379 17.5057H21.2301V17.9221H21.2338Z" fill="#00A580"/>
</svg>
