<svg width="20" height="18" viewBox="0 0 20 18" fill="none" xmlns="http://www.w3.org/2000/svg">
<path d="M2.82077 17.9134C2.2834 17.7727 1.73599 17.4602 1.19548 16.9065L1.09009 16.7993C0.10163 15.7939 -0.214596 14.6758 0.141391 13.4747C0.415604 12.5569 1.08945 11.6044 2.20592 10.5646L11.7216 1.68813C13.9055 -0.346592 16.7679 -0.559039 18.6251 1.14365C18.6507 1.16227 18.6733 1.18412 18.6959 1.20596L18.7965 1.30798C18.7965 1.30798 18.7998 1.31083 18.8032 1.31369C18.8258 1.33553 18.8454 1.3606 18.8651 1.38566C20.5923 3.33903 20.3269 6.33187 18.2135 8.3034L10.7042 15.3078C10.4296 15.5644 9.991 15.5551 9.72805 15.2852C9.46459 15.0171 9.47366 14.5894 9.7502 14.3333L17.2594 7.32892C18.6646 6.01824 19.2217 3.74886 17.7526 2.18758C16.2188 0.690987 14.0542 1.37481 12.6786 2.6594L3.16048 11.5372C2.22481 12.4093 1.67194 13.1665 1.46765 13.8518C1.25164 14.5797 1.44571 15.2199 2.08463 15.869L2.19001 15.9762C2.97989 16.7823 3.61258 16.7169 4.07531 16.5712C4.87089 16.3215 5.72959 15.5886 6.46309 14.9025L6.69056 14.6912L12.48 9.35524C13.1716 8.70998 13.8636 8.019 14.229 7.34209C14.665 6.53434 14.4203 6.11588 14.1235 5.81318C13.383 5.05787 12.3446 5.46305 10.4183 7.25857L6.44377 10.967C6.16913 11.2236 5.73243 11.2149 5.46757 10.9444C5.20411 10.6764 5.21318 10.2487 5.48972 9.9925L9.46429 6.28408C10.5623 5.25936 13.1365 2.8589 15.1204 4.88147C15.708 5.47929 16.2407 6.50078 15.4506 7.9665C14.9934 8.81448 14.2093 9.60282 13.4321 10.3292L7.41816 15.8732C6.46304 16.7641 4.7064 18.403 2.81989 17.9092L2.82077 17.9134Z" fill="#00A580"/>
</svg>
