<svg width="81" height="80" viewBox="0 0 81 80" fill="none" xmlns="http://www.w3.org/2000/svg">
<path d="M80.5 40C80.5 62.0914 62.5914 80 40.5 80C18.4086 80 0.5 62.0914 0.5 40C0.5 17.9086 18.4086 0 40.5 0C62.5914 0 80.5 17.9086 80.5 40Z" fill="url(#paint0_linear_1796_17054)"/>
<path fill-rule="evenodd" clip-rule="evenodd" d="M40.5 71.7647C58.0432 71.7647 72.2647 57.5432 72.2647 40C72.2647 22.4568 58.0432 8.23529 40.5 8.23529C22.9568 8.23529 8.73529 22.4568 8.73529 40C8.73529 57.5432 22.9568 71.7647 40.5 71.7647ZM40.5 75.2941C59.9924 75.2941 75.7941 59.4924 75.7941 40C75.7941 20.5076 59.9924 4.70588 40.5 4.70588C21.0076 4.70588 5.20588 20.5076 5.20588 40C5.20588 59.4924 21.0076 75.2941 40.5 75.2941Z" fill="white"/>
<path d="M43.7439 20.5882L43.1235 47.1364H37.7984L37.1521 20.5882H43.7439ZM36.9712 55.2792C36.9712 54.3313 37.2814 53.5386 37.9018 52.901C38.5394 52.2461 39.4183 51.9187 40.5385 51.9187C41.6414 51.9187 42.5117 52.2461 43.1494 52.901C43.787 53.5386 44.1058 54.3313 44.1058 55.2792C44.1058 56.1926 43.787 56.9767 43.1494 57.6315C42.5117 58.2692 41.6414 58.588 40.5385 58.588C39.4183 58.588 38.5394 58.2692 37.9018 57.6315C37.2814 56.9767 36.9712 56.1926 36.9712 55.2792Z" fill="white"/>
<defs>
<linearGradient id="paint0_linear_1796_17054" x1="27" y1="1.13942e-06" x2="51" y2="80" gradientUnits="userSpaceOnUse">
<stop stop-color="#57EE9B"/>
<stop offset="1" stop-color="#00A580"/>
</linearGradient>
</defs>
</svg>
