<svg width="22" height="20" viewBox="0 0 22 20" fill="none" xmlns="http://www.w3.org/2000/svg">
<path d="M8.89881 17.114C13.3993 17.114 17.0476 13.4587 17.0476 8.94959C17.0476 4.4405 13.3993 0.785156 8.89881 0.785156C4.39835 0.785156 0.75 4.4405 0.75 8.94959C0.75 13.4587 4.39835 17.114 8.89881 17.114Z" stroke="#A0A2A2" stroke-linecap="round" stroke-linejoin="round"/>
<path d="M14.8692 3.21094C18.2624 4.19829 20.7465 7.33534 20.7465 11.0535C20.7465 15.5654 17.097 19.218 12.5976 19.218C10.4854 19.218 8.56385 18.415 7.11719 17.0964" stroke="#A0A2A2" stroke-linecap="round" stroke-linejoin="round"/>
<path d="M4.16406 6.85938L6.51372 12.5148L8.64779 6.85938L10.9318 12.5148L13.0315 6.85938" stroke="#A0A2A2" stroke-linecap="round" stroke-linejoin="round"/>
<path d="M3.3125 9.29297H13.8797" stroke="#A0A2A2" stroke-linecap="round" stroke-linejoin="round"/>
</svg>
