<svg width="28" height="28" viewBox="0 0 28 28" fill="none" xmlns="http://www.w3.org/2000/svg">
<circle cx="14" cy="14" r="14" fill="#80E8B6" fill-opacity="0.2"/>
<g clip-path="url(#clip0_1796_7792)">
<path d="M14 17C12.3433 17 11 15.6567 11 14C11 12.3433 12.3433 11 14 11C15.6567 11 17 12.3433 17 14C17 15.6567 15.6567 17 14 17Z" stroke="#00A580" stroke-linecap="round" stroke-linejoin="round"/>
<path d="M19.0439 5.28125H8.82031C8.26803 5.28125 7.82031 5.72896 7.82031 6.28125V21.7133C7.82031 22.2656 8.26803 22.7133 8.82031 22.7133H19.0439C19.5962 22.7133 20.0439 22.2656 20.0439 21.7133V6.28125C20.0439 5.72897 19.5962 5.28125 19.0439 5.28125Z" stroke="#00A580" stroke-linecap="round" stroke-linejoin="round"/>
<path d="M19.7871 14H8.07031" stroke="#00A580" stroke-linecap="round" stroke-linejoin="round"/>
<path d="M16.701 5.28906V7.51868H11.1641V5.28906" stroke="#00A580" stroke-linecap="round" stroke-linejoin="round"/>
<path d="M16.701 22.719V20.4922H11.1641V22.719" stroke="#00A580" stroke-linecap="round" stroke-linejoin="round"/>
</g>
<defs>
<clipPath id="clip0_1796_7792">
<rect width="12.8571" height="18" fill="white" transform="translate(7.5 5)"/>
</clipPath>
</defs>
</svg>
