<svg width="49" height="48" viewBox="0 0 49 48" fill="none" xmlns="http://www.w3.org/2000/svg">
<path fill-rule="evenodd" clip-rule="evenodd" d="M45.5 24C45.5 35.598 36.098 45 24.5 45C12.902 45 3.5 35.598 3.5 24C3.5 12.402 12.902 3 24.5 3C36.098 3 45.5 12.402 45.5 24ZM48.5 24C48.5 37.2548 37.7548 48 24.5 48C11.2452 48 0.5 37.2548 0.5 24C0.5 10.7452 11.2452 0 24.5 0C37.7548 0 48.5 10.7452 48.5 24ZM22.0251 24.4957L16.3683 30.1525L18.4896 32.2739L24.1464 26.617L30.1569 32.6274L32.2782 30.5061L26.2678 24.4957L32.6317 18.1317L30.5104 16.0104L24.1464 22.3744L18.136 16.364L16.0147 18.4853L22.0251 24.4957Z" fill="#A0A2A2"/>
</svg>
