<svg width="49" height="48" viewBox="0 0 49 48" fill="none" xmlns="http://www.w3.org/2000/svg">
<path fill-rule="evenodd" clip-rule="evenodd" d="M45.5 24C45.5 35.598 36.098 45 24.5 45C12.902 45 3.5 35.598 3.5 24C3.5 12.402 12.902 3 24.5 3C36.098 3 45.5 12.402 45.5 24ZM48.5 24C48.5 37.2548 37.7548 48 24.5 48C11.2452 48 0.5 37.2548 0.5 24C0.5 10.7452 11.2452 0 24.5 0C37.7548 0 48.5 10.7452 48.5 24ZM18.5 24C18.5 25.1046 17.6046 26 16.5 26C15.3954 26 14.5 25.1046 14.5 24C14.5 22.8954 15.3954 22 16.5 22C17.6046 22 18.5 22.8954 18.5 24ZM26.5 24C26.5 25.1046 25.6046 26 24.5 26C23.3954 26 22.5 25.1046 22.5 24C22.5 22.8954 23.3954 22 24.5 22C25.6046 22 26.5 22.8954 26.5 24ZM32.5 26C33.6046 26 34.5 25.1046 34.5 24C34.5 22.8954 33.6046 22 32.5 22C31.3954 22 30.5 22.8954 30.5 24C30.5 25.1046 31.3954 26 32.5 26Z" fill="#2E655B"/>
</svg>
