<svg width="36" height="29" viewBox="0 0 36 29" fill="none" xmlns="http://www.w3.org/2000/svg">
<path d="M35.4941 4.67188H24.765C24.352 4.67188 23.9568 4.72049 23.5749 4.80447L20.595 13.419L25.2357 20.6412H18.0993L16.8203 24.3363H28.2644C29.7254 24.3363 30.9778 23.8148 32.0258 22.7673C33.0738 21.7197 33.6023 20.4644 33.6023 18.997C33.6023 17.9185 33.3225 16.955 32.7674 16.1063L27.6738 8.37139H33.5757L35.4985 4.6763L35.4941 4.67188Z" fill="#00A580"/>
<path d="M16.9134 20.6349L19.8532 12.1397L22.2158 5.31529L23.9699 0.25H22.3845L20.8613 4.64346H19.6756H16.6869L13.4318 14.0492L9.91461 4.64346H0.5L7.85406 24.33H12.8589H14.049L12.517 28.75H14.1023L16.607 21.5101L16.9134 20.6349Z" fill="#00A580"/>
</svg>
